<!DOCTYPE svg PUBLIC "-//W3C//DTD SVG 20010904//EN" "http://www.w3.org/TR/2001/REC-SVG-20010904/DTD/svg10.dtd">
<svg version="1.0" xmlns="http://www.w3.org/2000/svg" width="200px" height="200px" viewBox="0 0 2000 2000" preserveAspectRatio="xMidYMid meet">
<g id="layer101" fill="#3d2a20" stroke="none">
 <path d="M0 1000 l0 -1000 1000 0 1000 0 0 1000 0 1000 -1000 0 -1000 0 0 -1000z"/>
 </g>
<g id="layer102" fill="#49352a" stroke="none">
 <path d="M0 1000 l0 -1000 1000 0 1000 0 0 1000 0 1000 -1000 0 -1000 0 0 -1000z m1270 409 c0 -109 0 -109 24 -109 14 0 28 -5 32 -11 5 -8 -12 -10 -61 -7 -59 4 -71 8 -91 32 -13 15 -24 39 -24 54 1 33 25 79 34 64 3 -6 2 -13 -4 -17 -5 -3 -10 -24 -10 -45 0 -43 26 -70 68 -70 l24 0 -3 114 c-2 63 -1 112 3 109 5 -2 8 -53 8 -114z m-988 -4 c3 -95 4 -100 26 -103 22 -3 22 -1 24 110 l2 113 5 -110 c6 -101 8 -110 26 -110 18 0 20 8 23 95 3 105 7 125 23 115 8 -5 8 -10 0 -18 -6 -6 -11 -50 -11 -103 0 -104 -4 -110 -67 -112 -56 -1 -63 13 -63 127 0 57 -4 91 -11 91 -5 0 -7 5 -3 11 14 24 23 -11 26 -106z m239 106 c12 6 21 4 29 -6 10 -12 15 -12 35 1 20 13 24 13 39 -2 16 -15 18 -15 29 0 11 15 15 15 32 2 17 -12 22 -12 41 1 19 12 24 12 36 0 16 -16 44 -17 73 -1 15 8 27 8 47 0 25 -11 26 -13 13 -44 -17 -39 -21 -40 -20 -4 0 21 -5 28 -23 30 -20 3 -22 0 -16 -25 3 -15 11 -32 18 -38 16 -14 19 -58 4 -53 -7 3 -17 27 -23 54 -8 38 -15 50 -31 52 -17 2 -20 -2 -16 -31 5 -41 -18 -66 -38 -42 -11 13 -10 22 3 51 15 31 15 35 1 41 -31 12 -44 -24 -31 -82 7 -28 6 -29 -8 -11 -8 11 -15 30 -15 42 0 33 -10 54 -26 54 -10 0 -14 -15 -14 -59 l0 -59 38 -10 37 -10 -37 -1 c-36 -1 -38 -2 -38 -35 0 -19 -4 -38 -10 -41 -5 -3 -10 3 -10 14 0 27 -16 27 -30 0 -9 -16 -14 -18 -26 -8 -10 8 -14 33 -14 85 0 82 -12 124 -36 124 -12 0 -14 -6 -9 -30 4 -16 3 -35 -2 -42 -5 -9 -10 1 -13 27 -4 32 -9 41 -27 43 -20 3 -23 -1 -23 -28 0 -46 16 -70 47 -70 21 0 24 -3 15 -12 -17 -17 -64 20 -76 61 -11 38 15 77 43 62 9 -6 22 -6 32 0z m507 -14 c6 -5 12 -17 11 -26 0 -13 -2 -14 -6 -1 -11 28 -44 38 -71 21 -10 -6 -6 -15 18 -39 27 -27 29 -34 18 -52 -7 -11 -15 -20 -18 -20 -18 1 -41 33 -49 69 -5 23 -7 40 -4 37 3 -3 17 3 30 14 24 18 44 18 71 -3z m379 8 c18 -13 22 -13 33 0 8 10 17 12 29 6 10 -6 23 -6 33 0 10 6 19 6 22 0 3 -5 -1 -11 -9 -15 -9 -3 -16 -20 -16 -43 l-2 -38 -6 40 c-5 31 -10 40 -26 40 -15 0 -21 -8 -23 -31 -4 -36 19 -64 51 -64 16 0 18 -3 10 -11 -19 -19 -60 15 -74 60 -9 29 -18 41 -37 46 -40 10 -49 -10 -19 -41 31 -31 34 -46 11 -64 -12 -11 -18 -10 -34 6 -33 33 -35 70 -6 98 29 30 34 31 63 11z m324 -17 c6 -11 8 -22 6 -25 -3 -2 -8 5 -12 16 -3 12 -13 21 -21 21 -10 0 -14 -13 -14 -49 0 -48 -20 -85 -35 -61 -3 5 -1 10 4 10 6 0 11 21 11 48 0 69 34 91 61 40z m-168 -83 c-5 -14 -9 -4 -14 35 -4 30 -5 59 -1 65 9 15 23 -76 15 -100z m70 17 c7 -12 -30 -45 -38 -33 -3 6 -1 11 4 11 7 0 11 24 12 58 l1 57 9 -43 c4 -23 10 -46 12 -50z m-522 2 c11 -14 8 -15 -26 -12 -21 2 -40 9 -43 16 -6 18 53 15 69 -4z m-32 -255 c35 -5 77 -17 92 -25 l29 -15 0 -157 c0 -232 -21 -295 -120 -354 -19 -12 -37 -23 -39 -24 -2 -2 15 -24 37 -51 38 -46 72 -105 86 -149 5 -18 -1 -23 -48 -39 -53 -18 -56 -18 -96 0 -36 16 -46 17 -73 6 -18 -7 -42 -15 -54 -18 -28 -6 -113 27 -113 45 0 23 59 127 95 167 20 21 34 39 33 39 -2 1 -16 8 -31 16 -56 28 -95 78 -117 146 -16 54 -20 93 -20 221 l0 154 38 16 c69 29 198 39 301 22z"/>
 <path d="M584 1485 c-3 -8 -1 -28 4 -45 7 -18 7 -30 1 -30 -5 0 -9 -25 -9 -55 0 -30 4 -55 9 -55 14 0 20 26 16 67 -3 21 -2 30 1 20 10 -33 29 -11 32 37 3 49 -9 76 -35 76 -7 0 -16 -7 -19 -15z"/>
 <path d="M755 1440 c-7 -23 2 -43 16 -35 12 8 12 55 0 55 -5 0 -12 -9 -16 -20z"/>
 <path d="M620 1350 c0 -5 5 -10 10 -10 6 0 10 5 10 10 0 6 -4 10 -10 10 -5 0 -10 -4 -10 -10z"/>
 <path d="M950 1435 c0 -24 24 -44 37 -31 9 8 -14 56 -27 56 -5 0 -10 -11 -10 -25z"/>
 <path d="M1344 1438 c3 -13 6 -26 6 -30 0 -5 7 -8 15 -8 18 0 20 31 3 48 -19 19 -31 14 -24 -10z"/>
 <path d="M855 1149 c-96 -21 -85 2 -85 -187 l0 -168 28 -20 c54 -40 53 -41 46 30 -4 39 -3 66 2 66 11 0 74 -79 74 -92 0 -4 4 -8 9 -8 5 0 15 29 22 65 14 70 25 82 35 38 14 -64 25 -103 29 -103 2 0 20 23 40 50 20 28 40 50 45 50 4 0 5 -30 2 -67 l-5 -67 41 33 42 33 0 163 0 163 -71 16 c-77 17 -189 19 -254 5z"/>
 <path d="M966 822 c-2 -4 -7 -24 -11 -45 -4 -21 -13 -37 -21 -37 -8 0 -14 3 -14 8 0 4 -14 23 -31 42 l-30 35 6 -57 c4 -32 2 -58 -2 -58 -5 0 -24 11 -43 25 -45 33 -54 32 -34 -7 54 -107 180 -152 279 -101 46 24 66 44 90 91 23 47 12 51 -36 12 l-41 -32 4 61 c1 33 1 61 -2 61 -3 0 -18 -18 -33 -40 -16 -22 -32 -40 -36 -40 -5 0 -14 20 -20 45 -11 45 -16 52 -25 37z"/>
 <path d="M893 547 c-32 -35 -93 -140 -93 -161 0 -3 18 -10 39 -16 29 -8 52 -7 85 2 36 9 56 9 95 -1 60 -15 121 -1 121 28 0 28 -74 143 -110 170 l-33 26 8 -25 c4 -14 10 -31 12 -37 3 -7 1 -13 -4 -13 -6 0 -14 14 -19 32 -16 55 -31 44 -49 -39 -22 -101 -27 -113 -32 -92 -2 9 3 49 11 89 9 41 14 75 12 77 -2 2 -21 -16 -43 -40z m141 -83 c9 -24 7 -54 -4 -54 -5 0 -10 6 -10 13 0 6 -3 22 -6 35 -7 25 11 31 20 6z"/>
 </g>
<g id="layer103" fill="#554837" stroke="none">
 <path d="M0 1000 l0 -1000 1000 0 1000 0 0 1000 0 1000 -1000 0 -1000 0 0 -1000z m1270 409 c0 -109 0 -109 24 -109 14 0 28 -4 31 -10 4 -6 -17 -10 -55 -10 -55 0 -65 3 -91 29 -21 21 -29 39 -29 63 0 38 23 78 34 60 3 -6 2 -13 -4 -17 -15 -9 -12 -81 3 -94 8 -6 28 -14 45 -17 l32 -6 0 100 c0 58 -4 104 -10 107 -6 4 -8 11 -4 16 16 26 24 -13 24 -112z m-980 -7 c4 -82 8 -97 23 -100 15 -3 17 8 19 110 2 110 2 110 5 23 4 -109 9 -135 28 -135 19 0 24 26 27 130 2 51 7 84 13 81 6 -1 8 -8 5 -15 -2 -6 -7 -56 -10 -111 l-5 -100 -53 -2 c-66 -2 -72 8 -72 126 0 57 -4 91 -11 91 -5 0 -7 5 -3 11 16 26 29 -18 34 -109z m229 111 c8 8 15 7 28 -6 15 -15 18 -15 34 -1 14 12 22 13 39 4 16 -9 25 -9 36 1 11 9 18 8 33 -5 16 -15 19 -15 31 -1 12 14 47 12 60 -4 10 -12 32 -11 51 3 16 11 26 11 54 2 19 -7 38 -15 42 -19 3 -4 17 3 30 15 22 21 26 21 51 7 15 -8 28 -24 30 -34 2 -18 1 -18 -14 3 -19 25 -46 29 -63 8 -9 -10 -8 -15 3 -19 23 -9 47 -52 40 -71 -8 -20 -38 -21 -54 0 -8 8 -16 31 -19 51 -6 37 -31 59 -31 28 0 -9 -9 -30 -20 -45 -12 -17 -17 -35 -13 -45 4 -12 2 -16 -8 -13 -7 2 -18 27 -24 54 -7 33 -16 50 -28 52 -13 3 -17 -4 -17 -30 0 -41 -17 -63 -37 -47 -17 14 -16 27 1 61 16 30 7 44 -21 34 -12 -5 -14 -17 -11 -58 5 -46 4 -49 -8 -33 -8 10 -14 29 -14 41 0 33 -10 54 -26 54 -10 0 -14 -15 -14 -59 l0 -59 38 -10 37 -10 -37 -1 c-36 -1 -38 -2 -38 -35 0 -19 -4 -38 -10 -41 -5 -3 -10 3 -10 14 0 27 -14 27 -32 -1 -25 -37 -38 -13 -39 70 -1 42 -4 88 -8 102 -9 33 -37 34 -33 0 5 -44 -11 -58 -17 -15 -6 43 -26 53 -45 23 -17 -28 4 -72 39 -78 18 -3 25 -8 18 -13 -30 -19 -83 34 -83 83 0 29 28 52 49 40 12 -6 22 -5 30 3z m885 -4 c20 -9 29 -9 41 1 11 9 19 9 28 2 8 -7 18 -7 27 -2 8 5 21 5 32 -1 13 -7 18 -6 18 3 0 7 3 8 9 3 15 -15 17 -103 3 -117 -9 -9 -12 -5 -12 20 0 38 -20 84 -34 79 -6 -2 -13 -21 -15 -43 l-5 -39 -5 40 c-5 31 -10 40 -26 40 -26 0 -31 -36 -9 -69 9 -14 25 -26 35 -26 11 0 19 -4 19 -10 0 -16 -26 -11 -53 10 -15 12 -29 36 -33 55 -4 25 -12 35 -31 40 -41 10 -51 -10 -20 -39 31 -29 34 -48 11 -67 -14 -11 -20 -10 -40 14 -31 36 -30 62 1 92 28 29 26 29 59 14z m326 -18 c11 -16 16 -32 11 -35 -5 -3 -12 5 -15 19 -4 14 -13 25 -21 25 -11 0 -15 -13 -15 -54 0 -61 -12 -76 -40 -51 -17 15 -19 15 -28 -1 -7 -12 -15 -15 -28 -9 -18 7 -18 8 -1 12 14 4 17 15 17 59 0 30 5 54 10 54 6 0 10 -19 10 -43 0 -40 13 -67 32 -67 4 0 8 22 8 48 0 44 12 72 31 72 4 0 17 -13 29 -29z m-620 -66 c11 -13 7 -15 -29 -15 -30 0 -41 4 -41 15 0 10 10 15 29 15 16 0 34 -7 41 -15z m31 -266 c63 -22 61 -15 57 -224 -4 -155 -8 -196 -22 -222 -20 -37 -102 -113 -122 -113 -21 0 -17 -9 21 -51 31 -34 95 -146 95 -166 0 -10 -79 -43 -102 -43 -10 0 -36 7 -59 16 -38 16 -43 16 -75 0 -19 -9 -42 -16 -52 -16 -27 0 -102 34 -102 46 0 26 44 108 85 158 42 52 43 54 21 60 -35 9 -95 70 -119 123 -19 42 -22 69 -25 226 l-4 177 39 16 c21 9 61 20 88 25 64 10 231 3 276 -12z"/>
 <path d="M585 1481 c-3 -10 -1 -30 4 -45 7 -17 7 -26 1 -26 -13 0 -13 -97 0 -105 11 -7 13 3 12 60 0 22 2 32 4 22 10 -33 29 -11 32 37 3 48 -9 76 -34 76 -7 0 -15 -8 -19 -19z"/>
 <path d="M838 1484 c-4 -3 -2 -19 4 -35 8 -24 13 -27 25 -18 18 15 13 53 -7 57 -9 1 -19 0 -22 -4z"/>
 <path d="M755 1440 c-7 -23 2 -43 16 -35 12 8 12 55 0 55 -5 0 -12 -9 -16 -20z"/>
 <path d="M950 1434 c0 -23 24 -43 36 -31 9 9 -6 45 -21 51 -11 4 -15 -2 -15 -20z"/>
 <path d="M620 1350 c0 -5 5 -10 10 -10 6 0 10 5 10 10 0 6 -4 10 -10 10 -5 0 -10 -4 -10 -10z"/>
 <path d="M1344 1438 c3 -13 6 -26 6 -30 0 -12 30 -9 30 3 0 18 -20 49 -32 49 -6 0 -8 -9 -4 -22z"/>
 <path d="M895 1155 c-5 -2 -36 -9 -67 -15 l-58 -11 0 -168 0 -167 40 -26 39 -26 -6 64 c-3 38 -2 64 4 64 5 0 24 -20 43 -45 19 -25 37 -45 40 -45 4 0 13 27 20 60 7 34 18 59 23 57 6 -2 17 -32 25 -67 l14 -64 19 24 c48 65 61 80 69 80 5 0 6 -30 3 -67 l-6 -67 41 33 42 33 0 158 c0 110 -4 161 -12 166 -36 22 -233 43 -273 29z"/>
 <path d="M968 825 c-3 -6 -9 -27 -13 -48 -4 -21 -13 -37 -21 -37 -8 0 -14 3 -14 8 0 4 -14 23 -30 42 l-30 35 6 -64 c8 -70 9 -70 -53 -23 -43 32 -44 10 -3 -46 86 -119 268 -110 339 17 13 23 21 45 18 48 -4 3 -24 -9 -47 -27 -22 -17 -40 -28 -41 -23 0 4 0 33 1 63 l1 55 -31 -42 c-18 -24 -36 -43 -40 -43 -5 0 -15 21 -22 48 -8 26 -17 42 -20 37z"/>
 <path d="M963 575 c-6 -11 -17 -49 -23 -85 -17 -86 -35 -105 -25 -26 4 33 11 71 16 84 28 75 -57 -4 -100 -93 -17 -34 -31 -65 -31 -67 0 -3 19 -11 43 -17 34 -10 50 -9 84 3 38 13 49 13 90 1 56 -17 123 -5 123 22 0 23 -57 118 -91 153 -35 34 -55 40 -39 11 12 -23 13 -41 3 -41 -5 0 -15 17 -24 38 -14 34 -16 36 -26 17z m76 -142 c1 -13 -3 -23 -8 -23 -11 0 -23 59 -14 73 8 13 21 -18 22 -50z"/>
 </g>
<g id="layer104" fill="#78352e" stroke="none">
 <path d="M0 1000 l0 -1000 1000 0 1000 0 0 1000 0 1000 -1000 0 -1000 0 0 -1000z m1270 409 c0 -109 0 -109 24 -109 14 0 28 -4 31 -10 4 -6 -16 -10 -54 -10 -49 0 -65 4 -90 26 -24 20 -31 34 -31 63 0 39 23 82 36 68 4 -4 2 -13 -4 -19 -16 -16 -15 -83 1 -96 6 -6 25 -14 40 -17 l28 -7 -1 108 c-1 134 -2 126 10 119 6 -4 10 -53 10 -116z m-980 -7 c4 -82 8 -97 23 -100 15 -3 17 7 17 108 0 72 4 109 10 105 6 -3 10 -52 10 -111 0 -85 3 -104 15 -104 19 0 24 26 27 130 2 47 7 83 12 80 11 -6 8 -174 -4 -206 -8 -20 -16 -23 -57 -22 -26 0 -54 5 -60 10 -9 7 -13 40 -13 97 0 47 -4 93 -9 101 -12 18 -2 35 13 20 6 -6 13 -55 16 -108z m205 108 c5 -8 11 -7 20 0 10 8 19 8 35 0 16 -9 25 -9 35 0 10 9 19 9 35 0 16 -9 25 -8 36 1 11 9 18 8 33 -5 16 -15 19 -15 31 -1 15 18 49 20 56 2 5 -14 44 -21 44 -7 0 14 40 23 53 12 19 -15 77 -25 77 -13 0 5 9 13 20 16 27 8 66 -17 73 -47 6 -22 5 -21 -16 5 -24 28 -51 35 -63 15 -4 -6 0 -16 8 -22 41 -30 44 -90 5 -84 -20 3 -30 17 -58 83 -11 26 -13 27 -17 10 -2 -11 -13 -32 -23 -47 -11 -15 -16 -33 -12 -43 4 -12 2 -16 -7 -13 -13 4 -22 24 -34 81 -9 37 -36 36 -36 -2 0 -39 -9 -61 -25 -61 -22 0 -28 38 -12 70 16 32 8 46 -20 36 -12 -5 -14 -17 -11 -56 4 -41 3 -48 -8 -39 -8 6 -14 22 -14 36 0 29 -17 63 -30 63 -6 0 -10 -27 -10 -59 l0 -59 38 -10 37 -10 -37 -1 c-36 -1 -38 -2 -38 -35 0 -19 -4 -38 -10 -41 -5 -3 -10 3 -10 14 0 27 -7 26 -29 -1 -29 -35 -41 -14 -42 70 -1 42 -4 88 -8 102 -9 33 -37 34 -33 0 4 -42 -11 -60 -17 -20 -5 26 -11 35 -26 35 -13 0 -21 -8 -23 -23 -4 -29 24 -62 52 -62 14 0 17 -3 10 -10 -16 -16 -59 7 -73 37 -15 33 -14 59 5 77 18 19 30 20 39 6z m913 -2 c10 -10 17 -10 33 1 15 9 24 10 32 2 7 -7 15 -7 25 1 10 9 18 9 33 0 15 -10 19 -9 19 0 0 7 3 8 9 3 8 -9 15 -73 12 -112 -2 -27 -21 -11 -21 17 0 37 -20 82 -34 77 -6 -2 -13 -21 -15 -43 l-5 -39 -5 40 c-5 31 -10 40 -26 40 -26 0 -31 -36 -9 -69 9 -14 25 -26 35 -26 11 0 19 -4 19 -10 0 -16 -25 -11 -53 10 -14 11 -28 34 -32 51 -8 34 -48 60 -66 42 -7 -7 -3 -18 15 -36 30 -30 33 -49 10 -68 -14 -11 -20 -10 -40 14 -29 34 -30 56 -3 91 22 28 48 33 67 14z m307 4 c17 -12 35 -51 26 -56 -5 -3 -11 3 -14 14 -3 11 -12 20 -21 20 -12 0 -16 -11 -16 -49 0 -56 -13 -71 -40 -46 -17 15 -19 15 -28 -1 -7 -12 -15 -15 -28 -9 -18 7 -18 8 -1 12 14 4 17 15 17 59 0 30 5 54 10 54 6 0 10 -13 10 -29 0 -37 16 -81 30 -81 5 0 10 22 10 48 0 57 19 84 45 64z m-605 -87 c11 -13 7 -15 -29 -15 -30 0 -41 4 -41 15 0 10 10 15 29 15 16 0 34 -7 41 -15z m40 -268 l45 -14 0 -194 c0 -165 -3 -200 -18 -231 -19 -39 -101 -118 -123 -118 -21 0 -17 -8 26 -57 33 -38 90 -140 90 -162 0 -8 -81 -41 -102 -41 -10 0 -35 7 -57 16 -35 14 -42 14 -76 0 -21 -9 -45 -16 -53 -16 -29 0 -102 32 -102 45 0 27 44 109 86 160 25 31 38 55 31 55 -33 0 -99 63 -125 118 -25 54 -27 67 -30 235 l-4 177 39 16 c21 9 58 20 83 25 61 11 235 3 290 -14z"/>
 <path d="M586 1484 c-8 -20 25 -115 39 -111 15 5 18 96 4 113 -15 19 -35 18 -43 -2z"/>
 <path d="M838 1484 c-4 -3 -2 -19 4 -35 8 -24 13 -27 25 -18 18 15 13 53 -7 57 -9 1 -19 0 -22 -4z"/>
 <path d="M755 1440 c-8 -26 4 -48 16 -29 12 19 11 49 0 49 -5 0 -12 -9 -16 -20z"/>
 <path d="M950 1434 c0 -22 24 -44 35 -32 8 8 -7 47 -21 52 -10 4 -14 -2 -14 -20z"/>
 <path d="M580 1356 c0 -25 5 -48 10 -51 6 -4 10 13 10 44 0 28 -4 51 -10 51 -5 0 -10 -20 -10 -44z"/>
 <path d="M620 1350 c0 -5 5 -10 10 -10 6 0 10 5 10 10 0 6 -4 10 -10 10 -5 0 -10 -4 -10 -10z"/>
 <path d="M1344 1444 c3 -9 6 -22 6 -30 0 -8 7 -14 15 -14 18 0 19 14 5 41 -13 23 -35 26 -26 3z"/>
 <path d="M895 1155 c-5 -2 -36 -9 -67 -15 l-58 -11 0 -168 0 -167 40 -26 39 -26 -6 64 c-3 38 -2 64 4 64 5 0 24 -20 43 -45 19 -25 37 -45 40 -45 4 0 13 27 20 60 7 34 18 59 23 57 6 -2 17 -32 25 -67 l14 -64 19 24 c48 65 61 80 69 80 5 0 6 -30 3 -67 l-6 -67 41 33 42 33 0 158 c0 110 -4 161 -12 166 -36 22 -233 43 -273 29z"/>
 <path d="M968 825 c-3 -6 -8 -27 -12 -47 -4 -21 -11 -40 -16 -43 -5 -3 -21 13 -37 35 -15 22 -31 40 -34 40 -3 0 -4 -25 -1 -56 5 -62 6 -62 -55 -16 -41 30 -42 14 -3 -43 70 -102 225 -114 306 -23 29 32 58 78 52 83 -2 3 -23 -9 -45 -25 -22 -16 -42 -27 -45 -25 -3 3 -3 29 -1 58 l4 52 -21 -25 c-12 -14 -29 -34 -38 -45 -16 -19 -17 -18 -32 35 -9 30 -18 50 -22 45z"/>
 <path d="M891 545 c-34 -39 -81 -126 -81 -149 0 -26 64 -37 115 -19 41 13 50 13 92 -1 37 -13 53 -14 85 -4 23 7 38 17 38 27 0 30 -72 138 -114 171 -18 14 -18 13 -12 -18 10 -41 -8 -43 -23 -2 -5 17 -14 30 -20 30 -11 0 -15 -11 -32 -95 -13 -62 -29 -95 -29 -58 0 25 16 112 25 136 12 28 -11 19 -44 -18z m143 -71 c9 -23 7 -64 -3 -64 -9 0 -21 34 -21 63 0 21 16 22 24 1z"/>
 </g>
<g id="layer105" fill="#5e4e46" stroke="none">
 <path d="M0 1000 l0 -1000 1000 0 1000 0 0 1000 0 1000 -1000 0 -1000 0 0 -1000z m1270 409 c0 -109 0 -109 24 -109 14 0 28 -4 31 -10 4 -6 -16 -10 -54 -10 -49 0 -65 4 -90 26 -24 20 -31 34 -31 63 0 39 23 82 36 68 4 -4 2 -13 -4 -19 -16 -16 -15 -83 1 -96 6 -6 25 -14 40 -17 l28 -7 -1 108 c-1 134 -2 126 10 119 6 -4 10 -53 10 -116z m-980 -7 c4 -82 8 -97 23 -100 15 -3 17 7 17 108 0 72 4 109 10 105 6 -3 10 -52 10 -111 0 -85 3 -104 15 -104 19 0 24 26 27 130 2 47 7 83 12 80 11 -6 8 -174 -4 -206 -8 -20 -16 -23 -57 -22 -26 0 -54 5 -60 10 -9 7 -13 40 -13 97 0 47 -4 93 -9 101 -12 18 -2 35 13 20 6 -6 13 -55 16 -108z m205 108 c5 -8 11 -7 20 0 10 8 19 8 35 0 16 -9 25 -9 35 0 10 9 19 9 35 0 16 -9 25 -8 36 1 11 9 18 8 33 -5 16 -15 19 -15 31 -1 15 18 49 20 56 2 5 -14 44 -21 44 -7 0 14 40 23 53 12 19 -15 77 -25 77 -13 0 5 9 13 20 16 27 8 66 -17 73 -47 6 -22 5 -21 -16 5 -24 28 -51 35 -63 15 -4 -6 0 -16 8 -22 41 -30 44 -90 5 -84 -20 3 -30 17 -58 83 -11 26 -13 27 -17 10 -2 -11 -13 -32 -23 -47 -11 -15 -16 -33 -12 -43 4 -12 2 -16 -7 -13 -13 4 -22 24 -34 81 -9 37 -36 36 -36 -2 0 -39 -9 -61 -25 -61 -22 0 -28 38 -12 70 16 32 8 46 -20 36 -12 -5 -14 -17 -11 -56 4 -41 3 -48 -8 -39 -8 6 -14 22 -14 36 0 29 -17 63 -30 63 -6 0 -10 -27 -10 -59 l0 -59 38 -10 37 -10 -37 -1 c-36 -1 -38 -2 -38 -35 0 -19 -4 -38 -10 -41 -5 -3 -10 3 -10 14 0 27 -7 26 -29 -1 -29 -35 -41 -14 -42 70 -1 42 -4 88 -8 102 -9 33 -37 34 -33 0 4 -42 -11 -60 -17 -20 -5 26 -11 35 -26 35 -13 0 -21 -8 -23 -23 -4 -29 24 -62 52 -62 14 0 17 -3 10 -10 -16 -16 -59 7 -73 37 -15 33 -14 59 5 77 18 19 30 20 39 6z m913 -2 c10 -10 17 -10 33 1 15 9 24 10 32 2 7 -7 15 -7 25 1 10 9 18 9 33 0 15 -10 19 -9 19 0 0 7 3 8 9 3 8 -9 15 -73 12 -112 -2 -27 -21 -11 -21 17 0 37 -20 82 -34 77 -6 -2 -13 -21 -15 -43 l-5 -39 -5 40 c-5 31 -10 40 -26 40 -26 0 -31 -36 -9 -69 9 -14 25 -26 35 -26 11 0 19 -4 19 -10 0 -16 -25 -11 -53 10 -14 11 -28 34 -32 51 -8 34 -48 60 -66 42 -7 -7 -3 -18 15 -36 30 -30 33 -49 10 -68 -14 -11 -20 -10 -40 14 -29 34 -30 56 -3 91 22 28 48 33 67 14z m307 4 c17 -12 35 -51 26 -56 -5 -3 -11 3 -14 14 -3 11 -12 20 -21 20 -12 0 -16 -11 -16 -49 0 -56 -13 -71 -40 -46 -17 15 -19 15 -28 -1 -7 -12 -15 -15 -28 -9 -18 7 -18 8 -1 12 14 4 17 15 17 59 0 30 5 54 10 54 6 0 10 -13 10 -29 0 -37 16 -81 30 -81 5 0 10 22 10 48 0 57 19 84 45 64z m-605 -87 c11 -13 7 -15 -29 -15 -30 0 -41 4 -41 15 0 10 10 15 29 15 16 0 34 -7 41 -15z m40 -268 l45 -14 0 -194 c0 -165 -3 -200 -18 -231 -19 -39 -101 -118 -123 -118 -21 0 -17 -8 26 -57 33 -38 90 -140 90 -162 0 -8 -81 -41 -102 -41 -10 0 -35 7 -57 16 -35 14 -42 14 -76 0 -21 -9 -45 -16 -53 -16 -29 0 -102 32 -102 45 0 27 44 109 86 160 25 31 38 55 31 55 -33 0 -99 63 -125 118 -25 54 -27 67 -30 235 l-4 177 39 16 c21 9 58 20 83 25 61 11 235 3 290 -14z"/>
 <path d="M586 1484 c-8 -20 25 -115 39 -111 15 5 18 96 4 113 -15 19 -35 18 -43 -2z"/>
 <path d="M838 1484 c-4 -3 -2 -19 4 -35 8 -24 13 -27 25 -18 18 15 13 53 -7 57 -9 1 -19 0 -22 -4z"/>
 <path d="M755 1440 c-8 -26 4 -48 16 -29 12 19 11 49 0 49 -5 0 -12 -9 -16 -20z"/>
 <path d="M950 1434 c0 -22 24 -44 35 -32 8 8 -7 47 -21 52 -10 4 -14 -2 -14 -20z"/>
 <path d="M580 1356 c0 -25 5 -48 10 -51 6 -4 10 13 10 44 0 28 -4 51 -10 51 -5 0 -10 -20 -10 -44z"/>
 <path d="M620 1350 c0 -5 5 -10 10 -10 6 0 10 5 10 10 0 6 -4 10 -10 10 -5 0 -10 -4 -10 -10z"/>
 <path d="M1344 1444 c3 -9 6 -22 6 -30 0 -8 7 -14 15 -14 18 0 19 14 5 41 -13 23 -35 26 -26 3z"/>
 <path d="M859 1146 c-97 -22 -89 -5 -89 -185 l0 -160 33 -25 c19 -15 36 -26 38 -26 3 0 2 27 -1 61 -3 33 -2 62 2 65 4 3 24 -18 44 -45 21 -28 41 -48 45 -45 4 2 13 29 19 59 6 31 17 55 24 55 7 0 17 -26 24 -60 7 -33 16 -60 20 -60 4 0 22 23 41 50 18 27 38 47 43 44 6 -4 7 -30 3 -65 -4 -33 -4 -59 -1 -59 4 0 20 10 36 22 l30 22 0 167 0 167 -52 12 c-79 18 -196 21 -259 6z"/>
 <path d="M968 825 c-3 -6 -8 -27 -12 -47 -4 -21 -11 -40 -16 -43 -5 -3 -21 13 -37 35 -15 22 -31 40 -34 40 -3 0 -4 -25 -1 -56 5 -62 6 -62 -55 -16 -41 30 -42 14 -3 -43 70 -102 225 -114 306 -23 29 32 58 78 52 83 -2 3 -23 -9 -45 -25 -22 -16 -42 -27 -45 -25 -3 3 -3 29 -1 58 l4 52 -21 -25 c-12 -14 -29 -34 -38 -45 -16 -19 -17 -18 -32 35 -9 30 -18 50 -22 45z"/>
 <path d="M891 545 c-34 -39 -81 -126 -81 -149 0 -26 64 -37 115 -19 41 13 50 13 92 -1 37 -13 53 -14 85 -4 23 7 38 17 38 27 0 30 -72 138 -114 171 -18 14 -18 13 -12 -18 10 -41 -8 -43 -23 -2 -5 17 -14 30 -20 30 -11 0 -15 -11 -32 -95 -13 -62 -29 -95 -29 -58 0 25 16 112 25 136 12 28 -11 19 -44 -18z m143 -71 c9 -23 7 -64 -3 -64 -9 0 -21 34 -21 63 0 21 16 22 24 1z"/>
 </g>
<g id="layer106" fill="#65643e" stroke="none">
 <path d="M0 1000 l0 -1000 1000 0 1000 0 0 1000 0 1000 -1000 0 -1000 0 0 -1000z m1270 415 l0 -115 30 0 c17 0 30 -4 30 -10 0 -6 -26 -10 -59 -10 -49 0 -65 4 -90 26 -24 20 -31 34 -31 63 0 39 23 82 36 68 4 -4 2 -13 -4 -19 -16 -16 -15 -83 1 -96 6 -6 25 -14 40 -17 l28 -7 -1 108 c-1 133 -2 124 10 124 6 0 10 -45 10 -115z m-990 86 c5 -11 10 -58 10 -105 0 -51 4 -88 11 -92 21 -12 29 21 29 119 0 63 4 96 10 92 6 -3 10 -52 10 -111 0 -86 3 -104 15 -104 12 0 15 17 15 93 0 66 4 99 15 113 8 10 15 15 15 9 5 -42 -3 -192 -10 -211 -9 -21 -14 -23 -67 -21 l-58 2 -5 100 c-3 55 -10 108 -14 118 -11 24 11 22 24 -2z m215 9 c5 -8 11 -7 20 0 10 8 20 8 32 2 11 -7 24 -7 35 -1 12 6 25 6 39 -1 15 -9 24 -8 35 1 11 9 18 8 33 -5 16 -15 19 -15 24 -1 8 19 56 20 63 0 5 -12 11 -12 45 2 36 14 42 14 74 -1 32 -15 37 -16 57 -2 12 9 28 16 36 16 15 0 62 -45 62 -60 0 -17 -18 -11 -25 9 -7 22 -45 35 -60 20 -7 -7 -5 -14 6 -22 42 -31 46 -91 6 -85 -20 3 -30 17 -58 83 -11 26 -13 27 -17 10 -2 -11 -13 -32 -23 -47 -11 -14 -16 -33 -13 -42 4 -10 1 -16 -9 -16 -9 0 -17 14 -21 38 -11 59 -16 72 -32 72 -9 0 -14 -11 -14 -32 0 -42 -13 -63 -34 -55 -21 8 -21 60 -1 77 20 16 4 36 -21 26 -14 -5 -16 -16 -11 -62 5 -50 4 -54 -8 -38 -8 11 -15 29 -15 42 0 28 -17 62 -30 62 -6 0 -10 -27 -10 -59 l0 -59 38 -10 37 -10 -37 -1 c-36 -1 -38 -2 -38 -35 0 -19 -4 -38 -10 -41 -5 -3 -10 3 -10 14 0 27 -7 26 -30 -1 -31 -38 -44 -11 -50 100 -4 77 -8 97 -20 97 -11 0 -14 -8 -12 -29 5 -48 -11 -67 -17 -21 -5 31 -10 40 -26 40 -13 0 -21 -8 -23 -23 -4 -28 23 -62 50 -62 10 0 18 -4 18 -10 0 -26 -64 4 -79 37 -15 33 -14 59 5 77 18 19 30 20 39 6z m930 -1 c6 0 30 3 54 6 26 3 50 0 58 -6 9 -8 13 -8 13 0 0 6 5 11 10 11 6 0 10 -20 10 -44 0 -54 8 -76 26 -76 10 0 14 15 14 54 0 30 5 58 10 61 6 4 10 -8 10 -29 0 -41 15 -86 30 -86 5 0 10 22 10 49 0 50 16 76 41 66 18 -7 40 -53 29 -60 -5 -3 -11 4 -15 15 -3 11 -13 20 -21 20 -10 0 -14 -13 -14 -49 0 -56 -13 -71 -40 -46 -17 15 -19 15 -28 -1 -7 -12 -15 -15 -28 -9 -11 4 -25 7 -31 6 -8 -1 -13 10 -13 28 0 33 -19 81 -31 81 -8 0 -14 -19 -22 -70 -3 -19 -5 -16 -6 10 -2 44 -14 65 -35 57 -34 -13 -3 -97 35 -97 11 0 19 -4 19 -10 0 -14 -16 -12 -49 5 -20 10 -31 25 -35 50 -8 41 -47 68 -68 47 -9 -9 -5 -17 15 -32 28 -22 33 -44 17 -70 -15 -24 -58 6 -66 47 -9 45 27 88 66 78 14 -3 30 -6 35 -6z m-307 -86 c2 -9 -9 -13 -37 -13 -30 0 -41 4 -41 16 0 11 9 14 37 12 20 -2 38 -9 41 -15z m32 -266 l45 -14 0 -194 c0 -166 -3 -199 -18 -232 -22 -45 -92 -115 -121 -119 -19 -3 -17 -7 17 -45 33 -36 97 -149 97 -171 0 -11 -82 -42 -113 -42 -15 0 -39 7 -53 16 -23 15 -28 15 -67 0 -23 -9 -49 -16 -57 -16 -28 0 -100 33 -100 46 0 25 51 122 86 163 l35 40 -28 15 c-42 21 -79 65 -105 121 -20 45 -23 69 -26 226 l-4 175 25 17 c56 36 286 45 387 14z"/>
 <path d="M592 1441 c2 -33 6 -54 10 -48 5 8 8 5 8 -6 0 -41 25 -8 28 37 3 48 -9 76 -34 76 -11 0 -14 -14 -12 -59z"/>
 <path d="M837 1483 c-3 -5 0 -21 7 -38 l13 -30 12 23 c7 13 10 30 7 38 -6 15 -32 19 -39 7z"/>
 <path d="M755 1440 c-8 -26 4 -48 16 -29 12 19 11 49 0 49 -5 0 -12 -9 -16 -20z"/>
 <path d="M950 1438 c0 -29 16 -46 31 -31 6 6 2 19 -10 34 l-20 24 -1 -27z"/>
 <path d="M592 1335 c0 -16 2 -22 5 -12 2 9 2 23 0 30 -3 6 -5 -1 -5 -18z"/>
 <path d="M620 1350 c0 -5 5 -10 10 -10 6 0 10 5 10 10 0 6 -4 10 -10 10 -5 0 -10 -4 -10 -10z"/>
 <path d="M1349 1455 c-11 -10 3 -55 17 -55 8 0 14 6 14 13 0 17 -24 50 -31 42z"/>
 <path d="M859 1146 c-97 -22 -89 -5 -89 -185 l0 -160 33 -25 c19 -15 36 -26 38 -26 3 0 2 27 -1 61 -3 33 -2 62 2 65 4 3 24 -18 44 -45 21 -28 41 -48 45 -45 4 2 13 29 19 59 6 31 17 55 24 55 7 0 17 -26 24 -60 7 -33 16 -60 20 -60 4 0 22 23 41 50 18 27 38 47 43 44 6 -4 7 -30 3 -65 -4 -33 -4 -59 -1 -59 4 0 20 10 36 22 l30 22 0 167 0 167 -52 12 c-79 18 -196 21 -259 6z"/>
 <path d="M968 825 c-3 -6 -8 -27 -12 -47 -4 -21 -11 -40 -16 -43 -5 -3 -21 13 -37 35 -15 22 -31 40 -34 40 -3 0 -4 -25 -1 -56 5 -62 6 -62 -55 -16 -41 30 -42 14 -3 -43 70 -102 225 -114 306 -23 29 32 58 78 52 83 -2 3 -23 -9 -45 -25 -22 -16 -42 -27 -45 -25 -3 3 -3 29 -1 58 l4 52 -21 -25 c-12 -14 -29 -34 -38 -45 -16 -19 -17 -18 -32 35 -9 30 -18 50 -22 45z"/>
 <path d="M891 545 c-34 -39 -81 -126 -81 -149 0 -26 64 -37 115 -19 41 13 50 13 92 -1 37 -13 53 -14 85 -4 23 7 38 17 38 27 0 30 -72 138 -114 171 -18 14 -18 13 -12 -18 10 -41 -8 -43 -23 -2 -5 17 -14 30 -20 30 -11 0 -15 -11 -32 -95 -13 -62 -29 -95 -29 -58 0 25 16 112 25 136 12 28 -11 19 -44 -18z m143 -71 c9 -23 7 -64 -3 -64 -9 0 -21 34 -21 63 0 21 16 22 24 1z"/>
 </g>
<g id="layer107" fill="#9c3b37" stroke="none">
 <path d="M0 1000 l0 -1000 1000 0 1000 0 0 1000 0 1000 -1000 0 -1000 0 0 -1000z m1270 415 l0 -115 30 0 c17 0 30 -4 30 -10 0 -6 -26 -10 -59 -10 -49 0 -65 4 -90 26 -24 20 -31 34 -31 63 0 39 23 82 36 68 4 -4 2 -13 -4 -19 -16 -16 -15 -83 1 -96 6 -6 25 -14 40 -17 l28 -7 -1 108 c-1 133 -2 124 10 124 6 0 10 -45 10 -115z m-990 86 c5 -11 10 -58 10 -105 0 -51 4 -88 11 -92 21 -12 29 21 29 119 0 63 4 96 10 92 6 -3 10 -52 10 -111 0 -86 3 -104 15 -104 12 0 15 17 15 93 0 66 4 99 15 113 8 10 15 15 15 9 5 -42 -3 -192 -10 -211 -9 -21 -14 -23 -67 -21 l-58 2 -5 100 c-3 55 -10 108 -14 118 -11 24 11 22 24 -2z m215 9 c5 -8 11 -7 20 0 10 8 20 8 32 2 11 -7 24 -7 35 -1 12 6 25 6 39 -1 15 -9 24 -8 35 1 11 9 18 8 33 -5 16 -15 19 -15 24 -1 8 19 56 20 63 0 5 -12 11 -12 45 2 36 14 42 14 74 -1 32 -15 37 -16 57 -2 12 9 28 16 36 16 15 0 62 -45 62 -60 0 -17 -18 -11 -25 9 -7 22 -45 35 -60 20 -7 -7 -5 -14 6 -22 42 -31 46 -91 6 -85 -20 3 -30 17 -58 83 -11 26 -13 27 -17 10 -2 -11 -13 -32 -23 -47 -11 -14 -16 -33 -13 -42 4 -10 1 -16 -9 -16 -9 0 -17 14 -21 38 -11 59 -16 72 -32 72 -9 0 -14 -11 -14 -32 0 -42 -13 -63 -34 -55 -21 8 -21 60 -1 77 20 16 4 36 -21 26 -14 -5 -16 -16 -11 -62 5 -50 4 -54 -8 -38 -8 11 -15 29 -15 42 0 28 -17 62 -30 62 -6 0 -10 -27 -10 -59 l0 -59 38 -10 37 -10 -37 -1 c-36 -1 -38 -2 -38 -35 0 -19 -4 -38 -10 -41 -5 -3 -10 3 -10 14 0 27 -7 26 -30 -1 -31 -38 -44 -11 -50 100 -4 77 -8 97 -20 97 -11 0 -14 -8 -12 -29 5 -48 -11 -67 -17 -21 -5 31 -10 40 -26 40 -13 0 -21 -8 -23 -23 -4 -28 23 -62 50 -62 10 0 18 -4 18 -10 0 -26 -64 4 -79 37 -15 33 -14 59 5 77 18 19 30 20 39 6z m930 -1 c6 0 30 3 54 6 26 3 50 0 58 -6 9 -8 13 -8 13 0 0 6 5 11 10 11 6 0 10 -20 10 -44 0 -54 8 -76 26 -76 10 0 14 15 14 54 0 30 5 58 10 61 6 4 10 -8 10 -29 0 -41 15 -86 30 -86 5 0 10 22 10 49 0 50 16 76 41 66 18 -7 40 -53 29 -60 -5 -3 -11 4 -15 15 -3 11 -13 20 -21 20 -10 0 -14 -13 -14 -49 0 -56 -13 -71 -40 -46 -17 15 -19 15 -28 -1 -7 -12 -15 -15 -28 -9 -11 4 -25 7 -31 6 -8 -1 -13 10 -13 28 0 33 -19 81 -31 81 -8 0 -14 -19 -22 -70 -3 -19 -5 -16 -6 10 -2 44 -14 65 -35 57 -34 -13 -3 -97 35 -97 11 0 19 -4 19 -10 0 -14 -16 -12 -49 5 -20 10 -31 25 -35 50 -8 41 -47 68 -68 47 -9 -9 -5 -17 15 -32 28 -22 33 -44 17 -70 -15 -24 -58 6 -66 47 -9 45 27 88 66 78 14 -3 30 -6 35 -6z m-307 -86 c2 -9 -9 -13 -37 -13 -30 0 -41 4 -41 16 0 11 9 14 37 12 20 -2 38 -9 41 -15z m32 -266 l45 -14 0 -194 c0 -166 -3 -199 -18 -232 -22 -45 -92 -115 -121 -119 -19 -3 -17 -7 17 -45 33 -36 97 -149 97 -171 0 -11 -82 -42 -113 -42 -15 0 -39 7 -53 16 -23 15 -28 15 -67 0 -23 -9 -49 -16 -57 -16 -28 0 -100 33 -100 46 0 25 51 122 86 163 l35 40 -28 15 c-42 21 -79 65 -105 121 -20 45 -23 69 -26 226 l-4 175 25 17 c56 36 286 45 387 14z"/>
 <path d="M592 1441 c2 -33 6 -54 10 -48 5 8 8 5 8 -6 0 -41 25 -8 28 37 3 48 -9 76 -34 76 -11 0 -14 -14 -12 -59z"/>
 <path d="M837 1483 c-3 -5 0 -21 7 -38 l13 -30 12 23 c7 13 10 30 7 38 -6 15 -32 19 -39 7z"/>
 <path d="M755 1440 c-8 -26 4 -48 16 -29 12 19 11 49 0 49 -5 0 -12 -9 -16 -20z"/>
 <path d="M950 1438 c0 -29 16 -46 31 -31 6 6 2 19 -10 34 l-20 24 -1 -27z"/>
 <path d="M592 1335 c0 -16 2 -22 5 -12 2 9 2 23 0 30 -3 6 -5 -1 -5 -18z"/>
 <path d="M620 1350 c0 -5 5 -10 10 -10 6 0 10 5 10 10 0 6 -4 10 -10 10 -5 0 -10 -4 -10 -10z"/>
 <path d="M1349 1455 c-11 -10 3 -55 17 -55 8 0 14 6 14 13 0 17 -24 50 -31 42z"/>
 <path d="M859 1146 c-97 -22 -89 -5 -89 -185 l0 -160 33 -25 c19 -15 36 -26 38 -26 3 0 2 27 -1 61 -3 33 -2 62 2 65 4 3 24 -18 44 -45 21 -28 41 -48 45 -45 4 2 13 29 19 59 6 31 17 55 24 55 7 0 17 -26 24 -60 7 -33 16 -60 20 -60 4 0 22 23 41 50 18 27 38 47 43 44 6 -4 7 -30 3 -65 -4 -33 -4 -59 -1 -59 4 0 20 10 36 22 l30 22 0 167 0 167 -52 12 c-79 18 -196 21 -259 6z"/>
 <path d="M962 795 c-7 -22 -12 -46 -12 -52 0 -22 -14 -15 -47 24 l-32 38 -1 -52 c0 -49 -10 -67 -25 -43 -3 5 -20 19 -37 32 -29 20 -31 21 -24 2 41 -109 175 -166 274 -115 43 22 73 53 97 100 18 36 14 35 -41 -6 -17 -12 -33 -20 -37 -17 -3 3 -4 29 -1 58 l5 51 -18 -24 c-57 -77 -58 -78 -77 -4 l-13 48 -11 -40z"/>
 <path d="M908 557 c-32 -26 -98 -133 -98 -158 0 -25 62 -35 119 -20 35 9 55 9 91 0 50 -13 120 -5 120 13 0 22 -69 133 -100 163 l-32 30 7 -34 c5 -25 4 -32 -6 -29 -7 2 -16 15 -19 28 -11 47 -28 31 -44 -39 -9 -38 -16 -77 -16 -85 0 -9 -4 -16 -10 -16 -14 0 -12 56 4 118 7 29 13 52 12 52 -1 0 -13 -10 -28 -23z m126 -83 c9 -24 7 -64 -3 -64 -11 0 -21 25 -21 56 0 27 15 32 24 8z"/>
 </g>
<g id="layer108" fill="#685951" stroke="none">
 <path d="M0 1000 l0 -1000 1000 0 1000 0 0 1000 0 1000 -1000 0 -1000 0 0 -1000z m1270 415 l0 -115 30 0 c17 0 30 -4 30 -10 0 -6 -26 -10 -59 -10 -49 0 -65 4 -90 26 -24 20 -31 34 -31 63 0 39 23 82 36 68 4 -4 2 -13 -4 -19 -16 -16 -15 -83 1 -96 6 -6 25 -14 40 -17 l28 -7 -1 108 c-1 133 -2 124 10 124 6 0 10 -45 10 -115z m-990 86 c5 -11 10 -58 10 -105 0 -51 4 -88 11 -92 21 -12 29 21 29 119 0 63 4 96 10 92 6 -3 10 -52 10 -111 0 -86 3 -104 15 -104 12 0 15 17 15 93 0 66 4 99 15 113 8 10 15 15 15 9 5 -42 -3 -192 -10 -211 -9 -21 -14 -23 -67 -21 l-58 2 -5 100 c-3 55 -10 108 -14 118 -11 24 11 22 24 -2z m215 9 c5 -8 11 -7 20 0 10 8 20 8 32 2 11 -7 24 -7 35 -1 12 6 25 6 39 -1 15 -9 24 -8 35 1 11 9 18 8 33 -5 16 -15 19 -15 24 -1 8 19 56 20 63 0 5 -12 11 -12 45 2 36 14 42 14 74 -1 32 -15 37 -16 57 -2 12 9 28 16 36 16 15 0 62 -45 62 -60 0 -17 -18 -11 -25 9 -7 22 -45 35 -60 20 -7 -7 -5 -14 6 -22 42 -31 46 -91 6 -85 -20 3 -30 17 -58 83 -11 26 -13 27 -17 10 -2 -11 -13 -32 -23 -47 -11 -14 -16 -33 -13 -42 4 -10 1 -16 -9 -16 -9 0 -17 14 -21 38 -11 59 -16 72 -32 72 -9 0 -14 -11 -14 -32 0 -42 -13 -63 -34 -55 -21 8 -21 60 -1 77 20 16 4 36 -21 26 -14 -5 -16 -16 -11 -62 5 -50 4 -54 -8 -38 -8 11 -15 29 -15 42 0 28 -17 62 -30 62 -6 0 -10 -27 -10 -59 l0 -59 38 -10 37 -10 -37 -1 c-36 -1 -38 -2 -38 -35 0 -19 -4 -38 -10 -41 -5 -3 -10 3 -10 14 0 27 -7 26 -30 -1 -31 -38 -44 -11 -50 100 -4 77 -8 97 -20 97 -11 0 -14 -8 -12 -29 5 -48 -11 -67 -17 -21 -5 31 -10 40 -26 40 -13 0 -21 -8 -23 -23 -4 -28 23 -62 50 -62 10 0 18 -4 18 -10 0 -26 -64 4 -79 37 -15 33 -14 59 5 77 18 19 30 20 39 6z m930 -1 c6 0 30 3 54 6 26 3 50 0 58 -6 9 -8 13 -8 13 0 0 6 5 11 10 11 6 0 10 -20 10 -44 0 -54 8 -76 26 -76 10 0 14 15 14 54 0 30 5 58 10 61 6 4 10 -8 10 -29 0 -41 15 -86 30 -86 5 0 10 22 10 49 0 50 16 76 41 66 18 -7 40 -53 29 -60 -5 -3 -11 4 -15 15 -3 11 -13 20 -21 20 -10 0 -14 -13 -14 -49 0 -56 -13 -71 -40 -46 -17 15 -19 15 -28 -1 -7 -12 -15 -15 -28 -9 -11 4 -25 7 -31 6 -8 -1 -13 10 -13 28 0 33 -19 81 -31 81 -8 0 -14 -19 -22 -70 -3 -19 -5 -16 -6 10 -2 44 -14 65 -35 57 -34 -13 -3 -97 35 -97 11 0 19 -4 19 -10 0 -14 -16 -12 -49 5 -20 10 -31 25 -35 50 -8 41 -47 68 -68 47 -9 -9 -5 -17 15 -32 28 -22 33 -44 17 -70 -15 -24 -58 6 -66 47 -9 45 27 88 66 78 14 -3 30 -6 35 -6z m-307 -86 c2 -9 -9 -13 -37 -13 -30 0 -41 4 -41 16 0 11 9 14 37 12 20 -2 38 -9 41 -15z m32 -266 l45 -14 0 -194 c0 -166 -3 -199 -18 -232 -22 -45 -92 -115 -121 -119 -19 -3 -17 -7 17 -45 33 -36 97 -149 97 -171 0 -11 -82 -42 -113 -42 -15 0 -39 7 -53 16 -23 15 -28 15 -67 0 -23 -9 -49 -16 -57 -16 -28 0 -100 33 -100 46 0 25 51 122 86 163 l35 40 -28 15 c-42 21 -79 65 -105 121 -20 45 -23 69 -26 226 l-4 175 25 17 c56 36 286 45 387 14z"/>
 <path d="M592 1441 c2 -33 6 -54 10 -48 5 8 8 5 8 -6 0 -41 25 -8 28 37 3 48 -9 76 -34 76 -11 0 -14 -14 -12 -59z"/>
 <path d="M837 1483 c-3 -5 0 -21 7 -38 l13 -30 12 23 c7 13 10 30 7 38 -6 15 -32 19 -39 7z"/>
 <path d="M755 1440 c-8 -26 4 -48 16 -29 12 19 11 49 0 49 -5 0 -12 -9 -16 -20z"/>
 <path d="M950 1438 c0 -29 16 -46 31 -31 6 6 2 19 -10 34 l-20 24 -1 -27z"/>
 <path d="M592 1335 c0 -16 2 -22 5 -12 2 9 2 23 0 30 -3 6 -5 -1 -5 -18z"/>
 <path d="M620 1350 c0 -5 5 -10 10 -10 6 0 10 5 10 10 0 6 -4 10 -10 10 -5 0 -10 -4 -10 -10z"/>
 <path d="M1349 1455 c-11 -10 3 -55 17 -55 8 0 14 6 14 13 0 17 -24 50 -31 42z"/>
 <path d="M860 1144 c-36 -7 -71 -16 -77 -19 -10 -3 -13 -45 -13 -163 l0 -160 36 -27 36 -28 -3 64 c-5 79 8 83 55 16 19 -26 36 -44 39 -40 3 5 8 26 12 48 9 48 23 77 34 71 5 -3 14 -33 20 -66 7 -33 14 -60 16 -60 2 0 20 23 40 50 20 28 41 50 47 50 7 0 9 -22 5 -65 -6 -60 -5 -64 11 -55 53 31 52 26 52 203 l0 165 -87 16 c-104 19 -137 19 -223 0z"/>
 <path d="M962 795 c-7 -22 -12 -46 -12 -52 0 -22 -14 -15 -47 24 l-32 38 -1 -52 c0 -49 -10 -67 -25 -43 -3 5 -20 19 -37 32 -29 20 -31 21 -24 2 41 -109 175 -166 274 -115 43 22 73 53 97 100 18 36 14 35 -41 -6 -17 -12 -33 -20 -37 -17 -3 3 -4 29 -1 58 l5 51 -18 -24 c-57 -77 -58 -78 -77 -4 l-13 48 -11 -40z"/>
 <path d="M908 557 c-32 -26 -98 -133 -98 -158 0 -25 62 -35 119 -20 35 9 55 9 91 0 50 -13 120 -5 120 13 0 22 -69 133 -100 163 l-32 30 7 -34 c5 -25 4 -32 -6 -29 -7 2 -16 15 -19 28 -11 47 -28 31 -44 -39 -9 -38 -16 -77 -16 -85 0 -9 -4 -16 -10 -16 -14 0 -12 56 4 118 7 29 13 52 12 52 -1 0 -13 -10 -28 -23z m126 -83 c9 -24 7 -64 -3 -64 -11 0 -21 25 -21 56 0 27 15 32 24 8z"/>
 </g>
<g id="layer109" fill="#716b53" stroke="none">
 <path d="M0 1000 l0 -1000 1000 0 1000 0 0 1000 0 1000 -1000 0 -1000 0 0 -1000z m1270 415 l0 -115 30 0 c40 0 38 -18 -2 -22 -75 -7 -141 26 -150 77 -6 27 16 85 32 85 13 0 13 -6 -1 -29 -19 -29 -3 -90 27 -101 14 -6 30 -10 35 -10 5 0 9 47 9 105 0 67 -4 105 -11 105 -5 0 -7 5 -4 10 3 6 13 10 21 10 11 0 14 -22 14 -115z m-992 93 c8 -8 12 -46 12 -104 0 -57 4 -95 11 -100 21 -12 29 21 29 119 0 63 4 96 10 92 6 -3 10 -52 10 -111 0 -86 3 -104 15 -104 12 0 15 17 15 91 0 83 10 129 28 129 11 0 2 -213 -10 -227 -6 -8 -32 -12 -67 -10 l-56 2 -5 100 c-3 55 -10 108 -14 118 -9 20 4 23 22 5z m278 1 c3 -5 13 -5 25 1 13 8 25 7 40 -1 17 -8 23 -8 30 2 6 10 13 10 33 1 16 -7 28 -8 31 -2 9 15 55 12 61 -5 5 -12 11 -12 45 2 36 14 42 14 74 -1 32 -15 37 -16 57 -2 12 9 28 16 36 16 15 0 62 -45 62 -60 0 -17 -18 -11 -25 9 -7 22 -45 35 -60 19 -7 -7 -6 -12 3 -15 19 -7 43 -59 36 -78 -4 -9 -15 -15 -27 -13 -20 3 -29 15 -58 83 l-13 30 -4 -27 c-2 -14 -10 -32 -18 -38 -8 -7 -14 -23 -14 -36 0 -39 -27 -28 -34 14 -11 59 -16 72 -31 72 -9 0 -15 -15 -17 -42 -2 -35 -7 -43 -23 -43 -11 -1 -25 -4 -31 -8 -13 -7 -30 24 -39 71 -4 18 -13 32 -21 32 -10 0 -14 -14 -14 -54 0 -54 0 -54 38 -64 l37 -10 -37 -1 c-36 -1 -38 -2 -38 -35 0 -19 -4 -38 -10 -41 -5 -3 -10 3 -10 14 0 27 -17 27 -25 1 -7 -23 -27 -26 -43 -7 -6 7 -13 56 -14 108 -2 76 -6 94 -18 94 -11 0 -14 -8 -12 -29 5 -48 -11 -67 -17 -21 -5 31 -10 40 -26 40 -16 0 -20 -6 -18 -28 2 -35 19 -57 44 -57 11 0 19 -4 19 -10 0 -17 -39 -11 -60 10 -26 26 -35 66 -22 95 9 19 18 23 56 23 25 0 48 -4 52 -9z m869 1 c6 0 40 2 78 4 l67 4 0 -47 c0 -43 12 -71 32 -71 4 0 8 27 8 60 0 33 4 60 10 60 6 0 10 -16 10 -35 0 -37 18 -85 32 -85 4 0 8 24 8 54 0 55 12 72 44 60 18 -7 38 -52 26 -59 -5 -3 -11 4 -15 15 -3 11 -13 20 -21 20 -10 0 -14 -13 -14 -49 0 -56 -10 -67 -41 -50 -17 8 -23 8 -29 -1 -5 -8 -15 -10 -26 -5 -11 5 -25 7 -31 6 -8 -1 -13 9 -13 22 0 32 -20 87 -31 87 -5 0 -9 -15 -9 -32 0 -18 -5 -40 -10 -48 -7 -11 -10 -6 -10 21 0 37 -21 66 -40 54 -27 -17 7 -95 41 -95 11 0 19 -4 19 -10 0 -14 -16 -12 -49 5 -30 15 -41 33 -41 65 0 23 -26 39 -51 33 -25 -7 -24 -11 6 -35 28 -22 34 -65 10 -74 -8 -4 -26 1 -40 10 -52 34 -14 136 45 121 14 -3 30 -6 35 -5z m-307 -87 c2 -9 -9 -13 -37 -13 -30 0 -41 4 -41 16 0 11 9 14 37 12 20 -2 38 -9 41 -15z m32 -266 l45 -14 0 -194 c0 -166 -3 -199 -18 -232 -22 -46 -95 -117 -120 -117 -15 0 -12 -7 18 -44 33 -40 95 -155 95 -175 0 -12 -80 -41 -113 -41 -15 0 -39 7 -53 16 -23 15 -28 15 -67 0 -23 -9 -52 -16 -64 -16 -32 0 -93 31 -93 47 0 26 49 118 85 160 l36 42 -28 15 c-15 8 -44 32 -64 53 -53 55 -69 130 -69 321 0 173 -4 166 100 189 68 15 249 9 310 -10z"/>
 <path d="M592 1441 c2 -33 6 -54 10 -48 6 9 8 9 8 0 0 -7 7 -13 15 -13 19 0 21 90 3 108 -28 28 -38 13 -36 -47z"/>
 <path d="M727 1493 c-11 -10 -8 -61 3 -68 6 -3 10 3 10 13 0 11 7 25 15 32 8 7 12 16 9 21 -6 11 -28 12 -37 2z"/>
 <path d="M837 1483 c-3 -5 0 -21 7 -38 l13 -30 12 23 c7 13 10 30 7 38 -6 15 -32 19 -39 7z"/>
 <path d="M762 1430 c0 -19 2 -27 5 -17 2 9 2 25 0 35 -3 9 -5 1 -5 -18z"/>
 <path d="M953 1440 c4 -14 7 -28 7 -32 0 -5 5 -8 10 -8 16 0 11 36 -7 51 -15 13 -16 11 -10 -11z"/>
 <path d="M592 1335 c0 -16 2 -22 5 -12 2 9 2 23 0 30 -3 6 -5 -1 -5 -18z"/>
 <path d="M620 1350 c0 -5 5 -10 10 -10 6 0 10 5 10 10 0 6 -4 10 -10 10 -5 0 -10 -4 -10 -10z"/>
 <path d="M1350 1425 c0 -16 6 -25 15 -25 16 0 19 9 9 34 -9 25 -24 19 -24 -9z"/>
 <path d="M860 1144 c-36 -7 -71 -16 -77 -19 -10 -3 -13 -45 -13 -163 l0 -160 36 -27 36 -28 -3 64 c-5 79 8 83 55 16 19 -26 36 -44 39 -40 3 5 8 26 12 48 9 48 23 77 34 71 5 -3 14 -33 20 -66 7 -33 14 -60 16 -60 2 0 20 23 40 50 20 28 41 50 47 50 7 0 9 -22 5 -65 -6 -60 -5 -64 11 -55 53 31 52 26 52 203 l0 165 -87 16 c-104 19 -137 19 -223 0z"/>
 <path d="M962 795 c-7 -22 -12 -46 -12 -52 0 -22 -14 -15 -47 24 l-32 38 -1 -52 c0 -49 -10 -67 -25 -43 -3 5 -20 19 -37 32 -29 20 -31 21 -24 2 41 -109 175 -166 274 -115 43 22 73 53 97 100 18 36 14 35 -41 -6 -17 -12 -33 -20 -37 -17 -3 3 -4 29 -1 58 l5 51 -18 -24 c-57 -77 -58 -78 -77 -4 l-13 48 -11 -40z"/>
 <path d="M908 557 c-32 -26 -98 -133 -98 -158 0 -25 62 -35 119 -20 35 9 55 9 91 0 50 -13 120 -5 120 13 0 22 -69 133 -100 163 l-32 30 7 -34 c5 -25 4 -32 -6 -29 -7 2 -16 15 -19 28 -11 47 -28 31 -44 -39 -9 -38 -16 -77 -16 -85 0 -9 -4 -16 -10 -16 -14 0 -12 56 4 118 7 29 13 52 12 52 -1 0 -13 -10 -28 -23z m126 -83 c9 -24 7 -64 -3 -64 -11 0 -21 25 -21 56 0 27 15 32 24 8z"/>
 </g>
<g id="layer110" fill="#bf423f" stroke="none">
 <path d="M0 1000 l0 -1000 1000 0 1000 0 0 1000 0 1000 -1000 0 -1000 0 0 -1000z m1270 415 l0 -115 30 0 c18 0 30 -5 30 -13 0 -20 -109 -12 -140 11 -42 31 -53 65 -36 107 8 19 20 35 25 35 14 0 14 -6 0 -29 -19 -29 -3 -90 27 -101 14 -6 30 -10 35 -10 5 0 9 47 9 105 0 67 -4 105 -11 105 -5 0 -7 5 -4 10 3 6 13 10 21 10 11 0 14 -22 14 -115z m-982 0 c3 -99 14 -134 32 -105 5 8 10 59 10 113 0 63 4 96 10 92 6 -3 10 -52 10 -111 0 -86 3 -104 15 -104 12 0 15 17 15 91 0 83 10 129 28 129 11 0 2 -213 -10 -227 -6 -8 -32 -12 -67 -10 l-56 2 -5 100 c-3 55 -10 108 -14 119 -7 14 -5 17 10 14 17 -3 19 -14 22 -103z m267 95 c3 -5 17 -4 30 2 19 8 28 8 40 -2 14 -12 18 -11 25 0 7 11 14 12 34 2 16 -7 28 -8 31 -2 9 15 55 12 61 -5 5 -12 11 -12 45 2 36 14 42 14 74 -1 32 -15 37 -16 57 -2 12 9 28 16 36 16 15 0 62 -45 62 -60 0 -17 -18 -11 -25 9 -7 22 -45 35 -60 19 -7 -7 -6 -12 3 -15 19 -7 43 -59 36 -78 -4 -9 -15 -15 -27 -13 -20 3 -29 15 -58 83 l-13 30 -4 -27 c-2 -14 -10 -32 -18 -38 -8 -7 -14 -23 -14 -36 0 -23 -29 -36 -31 -14 -1 6 -2 13 -4 18 -1 4 -5 24 -9 45 -11 51 -34 48 -38 -5 -2 -35 -7 -43 -23 -43 -11 -1 -25 -4 -31 -8 -13 -7 -30 24 -39 71 -4 18 -13 32 -21 32 -10 0 -14 -14 -14 -54 0 -54 0 -54 38 -64 l37 -10 -37 -1 c-36 -1 -38 -2 -38 -35 0 -19 -4 -38 -10 -41 -5 -3 -10 3 -10 14 0 27 -17 27 -25 1 -7 -23 -27 -26 -43 -7 -6 7 -13 56 -14 108 -2 76 -6 94 -18 94 -11 0 -15 -11 -15 -39 0 -22 -5 -41 -11 -43 -7 -2 -11 10 -10 34 1 32 -2 38 -19 38 -16 0 -20 -6 -18 -28 2 -35 19 -57 44 -57 11 0 19 -4 19 -10 0 -16 -36 -12 -59 8 -26 20 -39 85 -22 106 13 16 97 20 106 6z m870 0 c6 0 40 2 78 4 l67 4 0 -47 c0 -43 12 -71 32 -71 4 0 8 27 8 60 0 33 4 60 10 60 6 0 10 -16 10 -35 0 -37 18 -85 32 -85 4 0 8 24 8 54 0 58 8 71 39 61 21 -6 45 -52 31 -60 -5 -3 -11 4 -15 15 -3 11 -13 20 -21 20 -10 0 -14 -13 -14 -50 0 -55 -17 -73 -46 -49 -13 10 -17 10 -24 -1 -5 -8 -14 -10 -26 -5 -11 4 -27 7 -36 6 -12 -1 -15 3 -11 18 6 23 -15 91 -28 91 -5 0 -9 -18 -9 -39 0 -22 -4 -43 -10 -46 -6 -4 -10 8 -10 28 0 36 -21 64 -40 52 -27 -17 7 -95 41 -95 11 0 19 -4 19 -10 0 -14 -16 -12 -49 5 -30 15 -41 33 -41 65 0 23 -26 39 -51 33 -25 -7 -24 -11 6 -35 28 -22 34 -65 10 -74 -8 -4 -26 1 -40 10 -52 34 -14 136 45 121 14 -3 30 -6 35 -5z m-307 -87 c2 -9 -9 -13 -37 -13 -30 0 -41 4 -41 16 0 11 9 14 37 12 20 -2 38 -9 41 -15z m-19 -254 c108 -19 101 -5 101 -199 0 -222 -7 -254 -72 -319 -28 -28 -59 -51 -70 -51 -15 0 -11 -9 23 -52 40 -51 89 -140 89 -164 0 -14 -76 -44 -111 -44 -14 0 -40 7 -57 16 -29 14 -35 14 -64 0 -17 -9 -43 -16 -58 -16 -40 0 -100 28 -100 46 0 27 48 118 85 161 l36 42 -23 12 c-36 18 -108 91 -108 109 0 9 -5 21 -12 28 -8 8 -14 71 -16 200 l-4 188 27 18 c51 34 212 46 334 25z"/>
 <path d="M596 1491 c-3 -4 -4 -31 -3 -59 1 -27 5 -45 9 -39 6 9 8 9 8 0 0 -7 7 -13 15 -13 11 0 15 12 15 48 0 55 -26 93 -44 63z"/>
 <path d="M724 1475 c-3 -14 -3 -33 1 -42 5 -14 10 -9 21 22 17 49 17 45 -1 45 -8 0 -17 -11 -21 -25z"/>
 <path d="M837 1483 c-3 -5 0 -21 7 -38 l13 -30 12 23 c7 13 10 30 7 38 -6 15 -32 19 -39 7z"/>
 <path d="M762 1430 c0 -19 2 -27 5 -17 2 9 2 25 0 35 -3 9 -5 1 -5 -18z"/>
 <path d="M953 1440 c4 -14 7 -28 7 -32 0 -5 5 -8 10 -8 16 0 11 36 -7 51 -15 13 -16 11 -10 -11z"/>
 <path d="M592 1335 c0 -16 2 -22 5 -12 2 9 2 23 0 30 -3 6 -5 -1 -5 -18z"/>
 <path d="M620 1350 c0 -5 5 -10 10 -10 6 0 10 5 10 10 0 6 -4 10 -10 10 -5 0 -10 -4 -10 -10z"/>
 <path d="M1350 1425 c0 -16 6 -25 15 -25 16 0 19 9 9 34 -9 25 -24 19 -24 -9z"/>
 <path d="M860 1144 c-36 -7 -71 -16 -77 -19 -10 -3 -13 -45 -13 -163 l0 -160 36 -27 36 -28 -3 64 c-5 79 8 83 55 16 19 -26 36 -44 39 -40 3 5 8 26 12 48 9 48 23 77 34 71 5 -3 14 -33 20 -66 7 -33 14 -60 16 -60 2 0 20 23 40 50 20 28 41 50 47 50 7 0 9 -22 5 -65 -6 -60 -5 -64 11 -55 53 31 52 26 52 203 l0 165 -87 16 c-104 19 -137 19 -223 0z"/>
 <path d="M968 815 c-4 -11 -9 -35 -13 -52 -4 -18 -10 -33 -13 -33 -4 0 -21 17 -39 37 l-32 38 -1 -52 c0 -49 -10 -67 -25 -43 -3 5 -20 19 -37 32 -29 20 -31 21 -24 2 29 -76 111 -134 190 -134 77 0 143 43 181 119 l17 34 -42 -31 c-24 -17 -47 -29 -52 -26 -5 3 -6 28 -2 55 4 27 4 49 2 49 -3 0 -17 -18 -32 -41 -15 -22 -32 -39 -39 -36 -6 2 -16 26 -22 53 -8 36 -13 44 -17 29z"/>
 <path d="M901 548 c-38 -37 -91 -125 -91 -150 0 -24 63 -34 119 -19 35 9 55 9 91 0 50 -13 120 -5 120 13 0 22 -69 133 -100 163 l-32 30 7 -34 c5 -25 4 -32 -6 -29 -7 2 -16 15 -19 28 -11 47 -28 31 -44 -39 -9 -38 -16 -77 -16 -85 0 -9 -4 -16 -10 -16 -14 0 -12 56 4 118 7 29 12 52 11 52 0 0 -16 -15 -34 -32z m137 -101 c2 -20 -1 -37 -6 -37 -13 0 -22 25 -22 57 0 39 25 22 28 -20z"/>
 </g>
<g id="layer111" fill="#7b6e67" stroke="none">
 <path d="M0 1000 l0 -1000 1000 0 1000 0 0 1000 0 1000 -1000 0 -1000 0 0 -1000z m1270 415 l0 -115 30 0 c18 0 30 -5 30 -13 0 -20 -109 -12 -140 11 -42 31 -53 65 -36 107 8 19 20 35 25 35 14 0 14 -6 0 -29 -19 -29 -3 -90 27 -101 14 -6 30 -10 35 -10 5 0 9 47 9 105 0 67 -4 105 -11 105 -5 0 -7 5 -4 10 3 6 13 10 21 10 11 0 14 -22 14 -115z m-982 0 c3 -99 14 -134 32 -105 5 8 10 59 10 113 0 63 4 96 10 92 6 -3 10 -52 10 -111 0 -86 3 -104 15 -104 12 0 15 17 15 91 0 83 10 129 28 129 11 0 2 -213 -10 -227 -6 -8 -32 -12 -67 -10 l-56 2 -5 100 c-3 55 -10 108 -14 119 -7 14 -5 17 10 14 17 -3 19 -14 22 -103z m267 95 c3 -5 17 -4 30 2 19 8 28 8 40 -2 14 -12 18 -11 25 0 7 11 14 12 34 2 16 -7 28 -8 31 -2 9 15 55 12 61 -5 5 -12 11 -12 45 2 36 14 42 14 74 -1 32 -15 37 -16 57 -2 12 9 28 16 36 16 15 0 62 -45 62 -60 0 -17 -18 -11 -25 9 -7 22 -45 35 -60 19 -7 -7 -6 -12 3 -15 19 -7 43 -59 36 -78 -4 -9 -15 -15 -27 -13 -20 3 -29 15 -58 83 l-13 30 -4 -27 c-2 -14 -10 -32 -18 -38 -8 -7 -14 -23 -14 -36 0 -23 -29 -36 -31 -14 -1 6 -2 13 -4 18 -1 4 -5 24 -9 45 -11 51 -34 48 -38 -5 -2 -35 -7 -43 -23 -43 -11 -1 -25 -4 -31 -8 -13 -7 -30 24 -39 71 -4 18 -13 32 -21 32 -10 0 -14 -14 -14 -54 0 -54 0 -54 38 -64 l37 -10 -37 -1 c-36 -1 -38 -2 -38 -35 0 -19 -4 -38 -10 -41 -5 -3 -10 3 -10 14 0 27 -17 27 -25 1 -7 -23 -27 -26 -43 -7 -6 7 -13 56 -14 108 -2 76 -6 94 -18 94 -11 0 -15 -11 -15 -39 0 -22 -5 -41 -11 -43 -7 -2 -11 10 -10 34 1 32 -2 38 -19 38 -16 0 -20 -6 -18 -28 2 -35 19 -57 44 -57 11 0 19 -4 19 -10 0 -16 -36 -12 -59 8 -26 20 -39 85 -22 106 13 16 97 20 106 6z m870 0 c6 0 40 2 78 4 l67 4 0 -47 c0 -43 12 -71 32 -71 4 0 8 27 8 60 0 33 4 60 10 60 6 0 10 -16 10 -35 0 -37 18 -85 32 -85 4 0 8 24 8 54 0 58 8 71 39 61 21 -6 45 -52 31 -60 -5 -3 -11 4 -15 15 -3 11 -13 20 -21 20 -10 0 -14 -13 -14 -50 0 -55 -17 -73 -46 -49 -13 10 -17 10 -24 -1 -5 -8 -14 -10 -26 -5 -11 4 -27 7 -36 6 -12 -1 -15 3 -11 18 6 23 -15 91 -28 91 -5 0 -9 -18 -9 -39 0 -22 -4 -43 -10 -46 -6 -4 -10 8 -10 28 0 36 -21 64 -40 52 -27 -17 7 -95 41 -95 11 0 19 -4 19 -10 0 -14 -16 -12 -49 5 -30 15 -41 33 -41 65 0 23 -26 39 -51 33 -25 -7 -24 -11 6 -35 28 -22 34 -65 10 -74 -8 -4 -26 1 -40 10 -52 34 -14 136 45 121 14 -3 30 -6 35 -5z m-307 -87 c2 -9 -9 -13 -37 -13 -30 0 -41 4 -41 16 0 11 9 14 37 12 20 -2 38 -9 41 -15z m-19 -254 c108 -19 101 -5 101 -199 0 -222 -7 -254 -72 -319 -28 -28 -59 -51 -70 -51 -15 0 -11 -9 23 -52 40 -51 89 -140 89 -164 0 -14 -76 -44 -111 -44 -14 0 -40 7 -57 16 -29 14 -35 14 -64 0 -17 -9 -43 -16 -58 -16 -40 0 -100 28 -100 46 0 27 48 118 85 161 l36 42 -23 12 c-36 18 -108 91 -108 109 0 9 -5 21 -12 28 -8 8 -14 71 -16 200 l-4 188 27 18 c51 34 212 46 334 25z"/>
 <path d="M596 1491 c-3 -4 -4 -31 -3 -59 1 -27 5 -45 9 -39 6 9 8 9 8 0 0 -7 7 -13 15 -13 11 0 15 12 15 48 0 55 -26 93 -44 63z"/>
 <path d="M724 1475 c-3 -14 -3 -33 1 -42 5 -14 10 -9 21 22 17 49 17 45 -1 45 -8 0 -17 -11 -21 -25z"/>
 <path d="M837 1483 c-3 -5 0 -21 7 -38 l13 -30 12 23 c7 13 10 30 7 38 -6 15 -32 19 -39 7z"/>
 <path d="M762 1430 c0 -19 2 -27 5 -17 2 9 2 25 0 35 -3 9 -5 1 -5 -18z"/>
 <path d="M953 1440 c4 -14 7 -28 7 -32 0 -5 5 -8 10 -8 16 0 11 36 -7 51 -15 13 -16 11 -10 -11z"/>
 <path d="M592 1335 c0 -16 2 -22 5 -12 2 9 2 23 0 30 -3 6 -5 -1 -5 -18z"/>
 <path d="M620 1350 c0 -5 5 -10 10 -10 6 0 10 5 10 10 0 6 -4 10 -10 10 -5 0 -10 -4 -10 -10z"/>
 <path d="M1350 1425 c0 -16 6 -25 15 -25 16 0 19 9 9 34 -9 25 -24 19 -24 -9z"/>
 <path d="M945 1153 c-16 -2 -60 -8 -97 -15 l-68 -11 0 -167 0 -166 31 -23 32 -24 -7 61 c-11 93 13 93 74 -2 l18 -29 10 39 c6 21 13 52 16 67 10 45 30 26 46 -43 l16 -63 37 51 c50 70 60 67 55 -13 l-4 -64 31 23 30 24 0 163 0 163 -30 8 c-42 11 -154 23 -190 21z"/>
 <path d="M968 815 c-4 -11 -9 -35 -13 -52 -4 -18 -10 -33 -13 -33 -4 0 -21 17 -39 37 l-32 38 -1 -52 c0 -49 -10 -67 -25 -43 -3 5 -20 19 -37 32 -29 20 -31 21 -24 2 29 -76 111 -134 190 -134 77 0 143 43 181 119 l17 34 -42 -31 c-24 -17 -47 -29 -52 -26 -5 3 -6 28 -2 55 4 27 4 49 2 49 -3 0 -17 -18 -32 -41 -15 -22 -32 -39 -39 -36 -6 2 -16 26 -22 53 -8 36 -13 44 -17 29z"/>
 <path d="M901 548 c-38 -37 -91 -125 -91 -150 0 -24 63 -34 119 -19 35 9 55 9 91 0 50 -13 120 -5 120 13 0 22 -69 133 -100 163 l-32 30 7 -34 c5 -25 4 -32 -6 -29 -7 2 -16 15 -19 28 -11 47 -28 31 -44 -39 -9 -38 -16 -77 -16 -85 0 -9 -4 -16 -10 -16 -14 0 -12 56 4 118 7 29 12 52 11 52 0 0 -16 -15 -34 -32z m137 -101 c2 -20 -1 -37 -6 -37 -13 0 -22 25 -22 57 0 39 25 22 28 -20z"/>
 </g>
<g id="layer112" fill="#7c864f" stroke="none">
 <path d="M0 1000 l0 -1000 1000 0 1000 0 0 1000 0 1000 -1000 0 -1000 0 0 -1000z m1270 415 l0 -115 30 0 c17 0 30 -5 30 -12 0 -8 -12 -12 -33 -12 -17 1 -44 2 -59 3 -36 1 -87 48 -94 86 -4 22 0 38 14 55 23 28 39 22 23 -8 -17 -33 -13 -61 14 -87 47 -48 55 -36 55 80 0 67 -4 105 -11 105 -5 0 -7 5 -4 10 3 6 13 10 21 10 11 0 14 -22 14 -115z m-982 0 c3 -99 14 -134 32 -105 5 8 10 59 10 113 0 63 4 96 10 92 6 -3 10 -52 10 -111 0 -86 3 -104 15 -104 12 0 15 18 15 99 0 76 3 101 15 111 9 7 16 11 18 9 1 -2 1 -52 -1 -112 -3 -102 -5 -108 -28 -124 -18 -12 -28 -13 -36 -5 -8 8 -17 8 -30 1 -36 -19 -46 4 -50 109 -2 53 -7 105 -12 116 -7 14 -5 17 10 14 17 -3 19 -14 22 -103z m268 94 c3 -5 11 -6 17 -2 17 11 99 12 119 2 10 -6 19 -5 23 1 9 15 55 12 61 -5 5 -12 11 -12 45 2 36 14 42 14 74 -1 32 -15 37 -16 57 -2 12 9 30 16 39 16 17 0 59 -44 59 -61 0 -17 -19 -9 -25 11 -4 14 -15 20 -36 20 -16 0 -29 -4 -29 -10 0 -5 4 -10 10 -10 15 0 41 -57 34 -74 -16 -41 -64 -5 -78 57 -7 31 -26 37 -26 8 0 -10 -6 -24 -14 -31 -8 -6 -16 -25 -18 -40 -4 -36 -26 -27 -34 13 -7 41 -23 77 -33 77 -5 0 -11 -19 -13 -42 -2 -35 -7 -43 -23 -43 -11 -1 -25 -4 -31 -8 -17 -10 -35 17 -41 63 -9 63 -33 53 -33 -15 l0 -55 40 -6 c22 -4 40 -10 40 -15 0 -5 -18 -9 -40 -9 -39 0 -40 -1 -40 -35 0 -19 -4 -35 -10 -35 -5 0 -10 9 -10 20 0 11 -4 20 -9 20 -5 0 -13 -9 -16 -20 -3 -11 -12 -20 -19 -20 -27 0 -36 26 -36 110 0 82 -10 123 -27 106 -4 -4 -8 -24 -8 -43 0 -20 -6 -38 -12 -40 -9 -3 -13 8 -13 37 0 34 -3 41 -17 38 -13 -3 -17 -12 -16 -32 2 -34 19 -56 44 -56 11 0 19 -4 19 -10 0 -19 -41 -10 -65 15 -27 26 -34 82 -14 102 14 14 97 15 105 2z m854 2 c8 -6 19 -7 25 -3 5 4 38 7 73 8 l62 1 0 -33 c0 -40 16 -84 30 -84 6 0 10 26 10 60 0 33 4 60 10 60 6 0 10 -16 10 -35 0 -37 18 -85 32 -85 4 0 8 24 8 54 0 58 8 71 39 61 21 -6 45 -52 31 -60 -5 -3 -11 4 -15 15 -3 11 -13 20 -21 20 -10 0 -14 -13 -14 -50 0 -52 -19 -75 -42 -52 -9 9 -15 8 -26 0 -10 -9 -18 -9 -32 0 -12 7 -21 8 -25 2 -14 -23 -25 -7 -25 34 0 80 -26 108 -32 34 -2 -23 -9 -43 -15 -46 -9 -2 -11 5 -7 27 9 44 -29 87 -38 44 -7 -32 13 -73 38 -79 28 -7 32 -24 5 -24 -27 0 -71 45 -71 74 0 28 -24 46 -51 39 -25 -7 -24 -11 7 -35 18 -14 24 -28 22 -47 -4 -32 -32 -39 -59 -15 -52 47 12 152 71 115z m-292 -88 c2 -9 -9 -13 -37 -13 -30 0 -41 4 -41 16 0 11 9 14 37 12 20 -2 38 -9 41 -15z m45 -266 l37 -16 0 -182 c0 -109 -5 -197 -12 -221 -12 -40 -100 -138 -124 -138 -21 0 -17 -9 21 -56 39 -47 89 -147 83 -165 -5 -14 -74 -39 -109 -39 -15 0 -39 6 -55 14 -24 13 -32 13 -62 0 -45 -18 -76 -18 -129 2 -37 14 -42 20 -37 38 11 38 57 116 91 156 l34 39 -23 12 c-36 18 -108 91 -108 109 0 9 -5 21 -12 28 -8 8 -14 71 -16 201 l-4 189 25 17 c39 25 110 34 242 31 80 -3 133 -9 158 -19z"/>
 <path d="M593 1436 c1 -30 5 -49 9 -42 6 8 8 8 8 -1 0 -7 7 -13 15 -13 11 0 15 11 15 36 0 42 -15 74 -35 74 -10 0 -13 -13 -12 -54z"/>
 <path d="M727 1483 c-10 -9 -9 -51 1 -57 4 -2 12 11 18 30 8 26 8 34 -1 34 -6 0 -15 -3 -18 -7z"/>
 <path d="M836 1482 c-2 -4 1 -18 8 -30 11 -21 14 -22 25 -8 7 9 11 23 7 31 -6 16 -31 21 -40 7z"/>
 <path d="M762 1425 c0 -16 2 -22 5 -12 2 9 2 23 0 30 -3 6 -5 -1 -5 -18z"/>
 <path d="M957 1444 c-7 -8 4 -44 14 -44 12 0 12 37 0 44 -4 3 -11 3 -14 0z"/>
 <path d="M592 1335 c0 -16 2 -22 5 -12 2 9 2 23 0 30 -3 6 -5 -1 -5 -18z"/>
 <path d="M1350 1428 c0 -18 5 -28 15 -28 19 0 19 11 0 36 -14 18 -14 18 -15 -8z"/>
 <path d="M945 1153 c-16 -2 -60 -8 -97 -15 l-68 -11 0 -167 0 -166 31 -23 32 -24 -7 61 c-11 93 13 93 74 -2 l18 -29 10 39 c6 21 13 52 16 67 10 45 30 26 46 -43 l16 -63 37 51 c50 70 60 67 55 -13 l-4 -64 31 23 30 24 0 163 0 163 -30 8 c-42 11 -154 23 -190 21z"/>
 <path d="M968 815 c-4 -11 -9 -35 -13 -52 -4 -18 -10 -33 -13 -33 -4 0 -21 17 -39 37 l-32 38 -1 -52 c0 -49 -10 -67 -25 -43 -3 5 -20 19 -37 32 -29 20 -31 21 -24 2 29 -76 111 -134 190 -134 77 0 143 43 181 119 l17 34 -42 -31 c-24 -17 -47 -29 -52 -26 -5 3 -6 28 -2 55 4 27 4 49 2 49 -3 0 -17 -18 -32 -41 -15 -22 -32 -39 -39 -36 -6 2 -16 26 -22 53 -8 36 -13 44 -17 29z"/>
 <path d="M901 548 c-38 -37 -91 -125 -91 -150 0 -24 63 -34 119 -19 35 9 55 9 91 0 50 -13 120 -5 120 13 0 22 -69 133 -100 163 l-32 30 7 -34 c5 -25 4 -32 -6 -29 -7 2 -16 15 -19 28 -11 47 -28 31 -44 -39 -9 -38 -16 -77 -16 -85 0 -9 -4 -16 -10 -16 -14 0 -12 56 4 118 7 29 12 52 11 52 0 0 -16 -15 -34 -32z m137 -101 c2 -20 -1 -37 -6 -37 -13 0 -22 25 -22 57 0 39 25 22 28 -20z"/>
 </g>
<g id="layer113" fill="#867a74" stroke="none">
 <path d="M0 1000 l0 -1000 1000 0 1000 0 0 1000 0 1000 -1000 0 -1000 0 0 -1000z m1270 415 l0 -115 30 0 c17 0 30 -5 30 -12 0 -8 -12 -12 -33 -12 -17 1 -44 2 -59 3 -36 1 -87 48 -94 86 -4 22 0 38 14 55 23 28 39 22 23 -8 -17 -33 -13 -61 14 -87 47 -48 55 -36 55 80 0 67 -4 105 -11 105 -5 0 -7 5 -4 10 3 6 13 10 21 10 11 0 14 -22 14 -115z m-982 0 c3 -99 14 -134 32 -105 5 8 10 59 10 113 0 63 4 96 10 92 6 -3 10 -52 10 -111 0 -86 3 -104 15 -104 12 0 15 18 15 99 0 76 3 101 15 111 9 7 16 11 18 9 1 -2 1 -52 -1 -112 -3 -102 -5 -108 -28 -124 -18 -12 -28 -13 -36 -5 -8 8 -17 8 -30 1 -36 -19 -46 4 -50 109 -2 53 -7 105 -12 116 -7 14 -5 17 10 14 17 -3 19 -14 22 -103z m268 94 c3 -5 11 -6 17 -2 17 11 99 12 119 2 10 -6 19 -5 23 1 9 15 55 12 61 -5 5 -12 11 -12 45 2 36 14 42 14 74 -1 32 -15 37 -16 57 -2 12 9 30 16 39 16 17 0 59 -44 59 -61 0 -17 -19 -9 -25 11 -4 14 -15 20 -36 20 -16 0 -29 -4 -29 -10 0 -5 4 -10 10 -10 15 0 41 -57 34 -74 -16 -41 -64 -5 -78 57 -7 31 -26 37 -26 8 0 -10 -6 -24 -14 -31 -8 -6 -16 -25 -18 -40 -4 -36 -26 -27 -34 13 -7 41 -23 77 -33 77 -5 0 -11 -19 -13 -42 -2 -35 -7 -43 -23 -43 -11 -1 -25 -4 -31 -8 -17 -10 -35 17 -41 63 -9 63 -33 53 -33 -15 l0 -55 40 -6 c22 -4 40 -10 40 -15 0 -5 -18 -9 -40 -9 -39 0 -40 -1 -40 -35 0 -19 -4 -35 -10 -35 -5 0 -10 9 -10 20 0 11 -4 20 -9 20 -5 0 -13 -9 -16 -20 -3 -11 -12 -20 -19 -20 -27 0 -36 26 -36 110 0 82 -10 123 -27 106 -4 -4 -8 -24 -8 -43 0 -20 -6 -38 -12 -40 -9 -3 -13 8 -13 37 0 34 -3 41 -17 38 -13 -3 -17 -12 -16 -32 2 -34 19 -56 44 -56 11 0 19 -4 19 -10 0 -19 -41 -10 -65 15 -27 26 -34 82 -14 102 14 14 97 15 105 2z m854 2 c8 -6 19 -7 25 -3 5 4 38 7 73 8 l62 1 0 -33 c0 -40 16 -84 30 -84 6 0 10 26 10 60 0 33 4 60 10 60 6 0 10 -16 10 -35 0 -37 18 -85 32 -85 4 0 8 24 8 54 0 58 8 71 39 61 21 -6 45 -52 31 -60 -5 -3 -11 4 -15 15 -3 11 -13 20 -21 20 -10 0 -14 -13 -14 -50 0 -52 -19 -75 -42 -52 -9 9 -15 8 -26 0 -10 -9 -18 -9 -32 0 -12 7 -21 8 -25 2 -14 -23 -25 -7 -25 34 0 80 -26 108 -32 34 -2 -23 -9 -43 -15 -46 -9 -2 -11 5 -7 27 9 44 -29 87 -38 44 -7 -32 13 -73 38 -79 28 -7 32 -24 5 -24 -27 0 -71 45 -71 74 0 28 -24 46 -51 39 -25 -7 -24 -11 7 -35 18 -14 24 -28 22 -47 -4 -32 -32 -39 -59 -15 -52 47 12 152 71 115z m-292 -88 c2 -9 -9 -13 -37 -13 -30 0 -41 4 -41 16 0 11 9 14 37 12 20 -2 38 -9 41 -15z m45 -266 l37 -16 0 -182 c0 -109 -5 -197 -12 -221 -12 -40 -100 -138 -124 -138 -21 0 -17 -9 21 -56 39 -47 89 -147 83 -165 -5 -14 -74 -39 -109 -39 -15 0 -39 6 -55 14 -24 13 -32 13 -62 0 -45 -18 -76 -18 -129 2 -37 14 -42 20 -37 38 11 38 57 116 91 156 l34 39 -23 12 c-36 18 -108 91 -108 109 0 9 -5 21 -12 28 -8 8 -14 71 -16 201 l-4 189 25 17 c39 25 110 34 242 31 80 -3 133 -9 158 -19z"/>
 <path d="M593 1436 c1 -30 5 -49 9 -42 6 8 8 8 8 -1 0 -7 7 -13 15 -13 11 0 15 11 15 36 0 42 -15 74 -35 74 -10 0 -13 -13 -12 -54z"/>
 <path d="M727 1483 c-10 -9 -9 -51 1 -57 4 -2 12 11 18 30 8 26 8 34 -1 34 -6 0 -15 -3 -18 -7z"/>
 <path d="M836 1482 c-2 -4 1 -18 8 -30 11 -21 14 -22 25 -8 7 9 11 23 7 31 -6 16 -31 21 -40 7z"/>
 <path d="M762 1425 c0 -16 2 -22 5 -12 2 9 2 23 0 30 -3 6 -5 -1 -5 -18z"/>
 <path d="M957 1444 c-7 -8 4 -44 14 -44 12 0 12 37 0 44 -4 3 -11 3 -14 0z"/>
 <path d="M592 1335 c0 -16 2 -22 5 -12 2 9 2 23 0 30 -3 6 -5 -1 -5 -18z"/>
 <path d="M1350 1428 c0 -18 5 -28 15 -28 19 0 19 11 0 36 -14 18 -14 18 -15 -8z"/>
 <path d="M945 1153 c-16 -2 -60 -8 -97 -15 l-68 -11 0 -167 0 -166 31 -23 32 -24 -7 61 c-11 93 13 93 74 -2 l18 -29 10 39 c6 21 13 52 16 67 10 45 30 26 46 -43 l16 -63 37 51 c50 70 60 67 55 -13 l-4 -64 31 23 30 24 0 163 0 163 -30 8 c-42 11 -154 23 -190 21z"/>
 <path d="M960 778 c-13 -49 -34 -63 -45 -29 -3 10 -15 27 -26 37 -21 19 -21 19 -18 -28 2 -26 0 -50 -4 -54 -3 -3 -24 8 -47 26 -44 35 -47 33 -26 -9 21 -39 77 -87 121 -101 81 -27 185 13 228 88 25 43 18 48 -23 17 -19 -14 -38 -25 -43 -25 -6 0 -7 23 -3 55 3 30 4 55 2 55 -2 0 -15 -18 -30 -41 -15 -22 -32 -39 -39 -36 -6 2 -17 23 -23 48 l-11 44 -13 -47z"/>
 <path d="M898 543 c-34 -36 -88 -128 -88 -151 0 -15 64 -26 98 -17 27 7 53 8 157 3 29 -2 59 2 65 8 14 14 -42 122 -86 165 l-34 33 6 -32 c5 -25 3 -32 -8 -32 -9 0 -18 13 -22 31 -9 47 -23 26 -42 -61 -12 -54 -22 -80 -31 -80 -9 0 -12 7 -10 18 3 9 8 40 12 67 4 28 11 58 16 68 14 25 7 21 -33 -20z m140 -97 c2 -28 0 -37 -10 -34 -7 3 -14 22 -16 42 -2 28 0 37 10 34 7 -3 14 -22 16 -42z"/>
 </g>
<g id="layer114" fill="#e65954" stroke="none">
 <path d="M0 1000 l0 -1000 1000 0 1000 0 0 1000 0 1000 -1000 0 -1000 0 0 -1000z m1270 415 l0 -115 30 0 c20 0 30 -5 30 -15 0 -34 -136 -11 -168 28 -24 28 -26 80 -4 107 26 32 35 23 19 -19 -15 -40 5 -81 46 -92 l27 -7 0 104 c0 66 -4 104 -11 104 -5 0 -7 5 -4 10 3 6 13 10 21 10 11 0 14 -22 14 -115z m-982 0 c3 -99 14 -134 32 -105 5 8 10 59 10 113 0 133 19 125 22 -10 2 -74 7 -108 16 -111 9 -3 12 22 12 102 0 106 6 124 37 112 12 -5 14 -9 5 -18 -8 -8 -12 -47 -12 -103 0 -75 -3 -95 -17 -107 -22 -18 -98 -21 -111 -5 -6 7 -12 55 -14 107 -2 52 -8 103 -12 114 -7 14 -5 17 10 14 17 -3 19 -14 22 -103z m268 94 c4 -7 10 -7 17 0 13 10 106 9 124 -2 6 -4 14 -3 18 3 9 15 53 12 62 -5 8 -13 12 -13 37 0 36 19 54 19 90 0 26 -14 31 -14 46 0 9 8 26 15 38 15 25 0 62 -33 62 -55 0 -22 -18 -18 -25 5 -4 14 -15 20 -36 20 -31 0 -39 -14 -14 -24 19 -7 36 -51 29 -71 -13 -32 -74 -2 -74 36 0 24 -10 49 -21 49 -5 0 -9 -8 -9 -19 0 -10 -7 -24 -15 -31 -8 -7 -15 -25 -15 -41 0 -45 -35 -30 -37 16 -2 30 -21 75 -32 75 -5 0 -11 -19 -13 -42 -3 -37 -6 -43 -25 -42 -22 1 -27 -7 -24 -33 1 -9 -12 -13 -39 -13 -39 0 -40 -1 -40 -35 0 -19 -4 -35 -10 -35 -5 0 -10 9 -10 20 0 11 -4 20 -9 20 -5 0 -11 -9 -14 -20 -6 -23 -29 -26 -45 -7 -6 7 -12 53 -14 102 -2 57 -7 90 -15 92 -7 3 -13 -10 -15 -33 -4 -54 -28 -57 -28 -4 0 34 -3 41 -17 38 -13 -3 -17 -12 -16 -32 2 -34 19 -56 44 -56 11 0 19 -4 19 -10 0 -19 -41 -10 -65 15 -27 26 -34 82 -14 102 14 14 97 15 105 2z m854 1 c8 -5 19 -5 25 0 5 4 38 8 73 7 l62 -1 0 -32 c0 -40 16 -84 30 -84 6 0 10 26 10 60 0 33 4 60 10 60 6 0 10 -16 10 -35 0 -37 18 -85 32 -85 4 0 8 24 8 54 0 58 8 71 39 61 23 -7 45 -52 30 -61 -6 -3 -13 3 -16 15 -3 12 -12 21 -19 21 -10 0 -14 -14 -14 -50 0 -52 -19 -75 -42 -52 -9 9 -15 8 -26 0 -10 -9 -18 -9 -32 0 -12 7 -21 8 -25 2 -14 -23 -24 -7 -27 42 -4 61 -25 77 -30 22 -4 -53 -28 -57 -28 -5 0 29 -4 41 -14 41 -36 0 -18 -77 20 -86 29 -7 32 -24 4 -24 -29 0 -70 44 -70 74 0 29 -29 49 -50 36 -12 -7 -10 -13 9 -33 43 -47 6 -103 -40 -61 -24 21 -25 80 -2 106 17 19 49 23 73 8z m-292 -87 c2 -9 -9 -13 -37 -13 -30 0 -41 4 -41 16 0 11 9 14 37 12 20 -2 38 -9 41 -15z m45 -266 l37 -16 0 -182 c0 -114 -5 -197 -12 -223 -13 -44 -96 -136 -123 -136 -21 0 -19 -6 19 -53 35 -43 81 -129 88 -161 2 -13 -8 -21 -37 -32 -48 -16 -111 -18 -121 -3 -6 10 -37 9 -112 -7 -32 -6 -105 10 -126 27 -13 12 51 140 91 181 l35 36 -23 12 c-39 20 -99 83 -116 120 -12 26 -17 82 -21 220 -5 210 -7 203 76 227 67 18 294 12 345 -10z"/>
 <path d="M590 1474 c0 -34 24 -94 37 -94 16 0 18 62 3 91 -13 23 -40 25 -40 3z"/>
 <path d="M660 1436 c0 -50 2 -54 26 -60 35 -9 37 -5 19 30 -8 16 -15 41 -15 57 0 17 -5 27 -15 27 -11 0 -15 -13 -15 -54z"/>
 <path d="M727 1483 c-10 -9 -9 -51 1 -57 4 -2 12 11 18 30 8 26 8 34 -1 34 -6 0 -15 -3 -18 -7z"/>
 <path d="M851 1481 c-8 -5 -11 -17 -6 -30 5 -18 9 -20 21 -10 26 21 13 57 -15 40z"/>
 <path d="M762 1430 c0 -14 2 -19 5 -12 2 6 2 18 0 25 -3 6 -5 1 -5 -13z"/>
 <path d="M957 1444 c-7 -8 4 -44 14 -44 12 0 12 37 0 44 -4 3 -11 3 -14 0z"/>
 <path d="M592 1335 c0 -16 2 -22 5 -12 2 9 2 23 0 30 -3 6 -5 -1 -5 -18z"/>
 <path d="M1350 1431 c0 -11 5 -23 10 -26 6 -3 10 3 10 14 0 11 -4 23 -10 26 -5 3 -10 -3 -10 -14z"/>
 <path d="M945 1153 c-16 -2 -60 -8 -97 -15 l-68 -11 0 -167 0 -166 31 -23 32 -24 -7 61 c-11 93 13 93 74 -2 l18 -29 10 39 c6 21 13 52 16 67 10 45 30 26 46 -43 l16 -63 37 51 c50 70 60 67 55 -13 l-4 -64 31 23 30 24 0 163 0 163 -30 8 c-42 11 -154 23 -190 21z"/>
 <path d="M960 778 c-13 -49 -34 -63 -45 -29 -3 10 -15 27 -26 37 -21 19 -21 19 -18 -28 2 -26 0 -50 -4 -54 -3 -3 -24 8 -47 26 -44 35 -47 33 -26 -9 21 -39 77 -87 121 -101 81 -27 185 13 228 88 25 43 18 48 -23 17 -19 -14 -38 -25 -43 -25 -6 0 -7 23 -3 55 3 30 4 55 2 55 -2 0 -15 -18 -30 -41 -15 -22 -32 -39 -39 -36 -6 2 -17 23 -23 48 l-11 44 -13 -47z"/>
 <path d="M898 543 c-34 -36 -88 -128 -88 -151 0 -15 64 -26 98 -17 27 7 53 8 157 3 29 -2 59 2 65 8 14 14 -42 122 -86 165 l-34 33 6 -32 c5 -25 3 -32 -8 -32 -9 0 -18 13 -22 31 -9 47 -23 26 -42 -61 -12 -54 -22 -80 -31 -80 -9 0 -12 7 -10 18 3 9 8 40 12 67 4 28 11 58 16 68 14 25 7 21 -33 -20z m140 -97 c2 -28 0 -37 -10 -34 -7 3 -14 22 -16 42 -2 28 0 37 10 34 7 -3 14 -22 16 -42z"/>
 </g>
<g id="layer115" fill="#909c67" stroke="none">
 <path d="M0 1000 l0 -1000 1000 0 1000 0 0 1000 0 1000 -1000 0 -1000 0 0 -1000z m1270 415 l0 -115 30 0 c20 0 30 -5 30 -15 0 -34 -136 -11 -168 28 -24 28 -26 80 -4 107 26 32 35 23 19 -19 -15 -40 5 -81 46 -92 l27 -7 0 104 c0 66 -4 104 -11 104 -5 0 -7 5 -4 10 3 6 13 10 21 10 11 0 14 -22 14 -115z m-982 0 c3 -99 14 -134 32 -105 5 8 10 59 10 113 0 133 19 125 22 -10 2 -74 7 -108 16 -111 9 -3 12 22 12 102 0 106 6 124 37 112 12 -5 14 -9 5 -18 -8 -8 -12 -47 -12 -103 0 -75 -3 -95 -17 -107 -22 -18 -98 -21 -111 -5 -6 7 -12 55 -14 107 -2 52 -8 103 -12 114 -7 14 -5 17 10 14 17 -3 19 -14 22 -103z m268 94 c4 -7 10 -7 17 0 13 10 106 9 124 -2 6 -4 14 -3 18 3 9 15 53 12 62 -5 8 -13 12 -13 37 0 36 19 54 19 90 0 26 -14 31 -14 46 0 9 8 26 15 38 15 25 0 62 -33 62 -55 0 -22 -18 -18 -25 5 -4 14 -15 20 -36 20 -31 0 -39 -14 -14 -24 19 -7 36 -51 29 -71 -13 -32 -74 -2 -74 36 0 24 -10 49 -21 49 -5 0 -9 -8 -9 -19 0 -10 -7 -24 -15 -31 -8 -7 -15 -25 -15 -41 0 -45 -35 -30 -37 16 -2 30 -21 75 -32 75 -5 0 -11 -19 -13 -42 -3 -37 -6 -43 -25 -42 -22 1 -27 -7 -24 -33 1 -9 -12 -13 -39 -13 -39 0 -40 -1 -40 -35 0 -19 -4 -35 -10 -35 -5 0 -10 9 -10 20 0 11 -4 20 -9 20 -5 0 -11 -9 -14 -20 -6 -23 -29 -26 -45 -7 -6 7 -12 53 -14 102 -2 57 -7 90 -15 92 -7 3 -13 -10 -15 -33 -4 -54 -28 -57 -28 -4 0 34 -3 41 -17 38 -13 -3 -17 -12 -16 -32 2 -34 19 -56 44 -56 11 0 19 -4 19 -10 0 -19 -41 -10 -65 15 -27 26 -34 82 -14 102 14 14 97 15 105 2z m854 1 c8 -5 19 -5 25 0 5 4 38 8 73 7 l62 -1 0 -32 c0 -40 16 -84 30 -84 6 0 10 26 10 60 0 33 4 60 10 60 6 0 10 -16 10 -35 0 -37 18 -85 32 -85 4 0 8 24 8 54 0 58 8 71 39 61 23 -7 45 -52 30 -61 -6 -3 -13 3 -16 15 -3 12 -12 21 -19 21 -10 0 -14 -14 -14 -50 0 -52 -19 -75 -42 -52 -9 9 -15 8 -26 0 -10 -9 -18 -9 -32 0 -12 7 -21 8 -25 2 -14 -23 -24 -7 -27 42 -4 61 -25 77 -30 22 -4 -53 -28 -57 -28 -5 0 29 -4 41 -14 41 -36 0 -18 -77 20 -86 29 -7 32 -24 4 -24 -29 0 -70 44 -70 74 0 29 -29 49 -50 36 -12 -7 -10 -13 9 -33 43 -47 6 -103 -40 -61 -24 21 -25 80 -2 106 17 19 49 23 73 8z m-292 -87 c2 -9 -9 -13 -37 -13 -30 0 -41 4 -41 16 0 11 9 14 37 12 20 -2 38 -9 41 -15z m45 -266 l37 -16 0 -182 c0 -114 -5 -197 -12 -223 -13 -44 -96 -136 -123 -136 -21 0 -19 -6 19 -53 35 -43 81 -129 88 -161 2 -13 -8 -21 -37 -32 -48 -16 -111 -18 -121 -3 -6 10 -37 9 -112 -7 -32 -6 -105 10 -126 27 -13 12 51 140 91 181 l35 36 -23 12 c-39 20 -99 83 -116 120 -12 26 -17 82 -21 220 -5 210 -7 203 76 227 67 18 294 12 345 -10z"/>
 <path d="M590 1474 c0 -34 24 -94 37 -94 16 0 18 62 3 91 -13 23 -40 25 -40 3z"/>
 <path d="M660 1436 c0 -50 2 -54 26 -60 35 -9 37 -5 19 30 -8 16 -15 41 -15 57 0 17 -5 27 -15 27 -11 0 -15 -13 -15 -54z"/>
 <path d="M727 1483 c-10 -9 -9 -51 1 -57 4 -2 12 11 18 30 8 26 8 34 -1 34 -6 0 -15 -3 -18 -7z"/>
 <path d="M851 1481 c-8 -5 -11 -17 -6 -30 5 -18 9 -20 21 -10 26 21 13 57 -15 40z"/>
 <path d="M762 1430 c0 -14 2 -19 5 -12 2 6 2 18 0 25 -3 6 -5 1 -5 -13z"/>
 <path d="M957 1444 c-7 -8 4 -44 14 -44 12 0 12 37 0 44 -4 3 -11 3 -14 0z"/>
 <path d="M592 1335 c0 -16 2 -22 5 -12 2 9 2 23 0 30 -3 6 -5 -1 -5 -18z"/>
 <path d="M1350 1431 c0 -11 5 -23 10 -26 6 -3 10 3 10 14 0 11 -4 23 -10 26 -5 3 -10 -3 -10 -14z"/>
 <path d="M835 1136 l-50 -11 -3 -165 -2 -165 30 -19 31 -18 -7 61 c-6 52 -4 61 9 61 9 0 31 -21 49 -46 l33 -46 12 29 c7 15 12 37 13 48 0 11 5 27 10 35 9 13 12 13 24 -3 8 -10 17 -38 21 -62 3 -25 9 -45 13 -45 4 0 21 21 37 45 27 41 44 53 56 40 3 -2 2 -31 -1 -63 l-6 -60 33 26 33 25 -2 160 -3 161 -55 12 c-67 16 -208 16 -275 0z m232 -213 c-4 -3 -7 0 -7 7 0 7 3 10 7 7 3 -4 3 -10 0 -14z m-210 -10 c-4 -3 -7 0 -7 7 0 7 3 10 7 7 3 -4 3 -10 0 -14z"/>
 <path d="M960 778 c-13 -49 -34 -63 -45 -29 -3 10 -15 27 -26 37 -21 19 -21 19 -18 -28 2 -26 0 -50 -4 -54 -3 -3 -24 8 -47 26 -44 35 -47 33 -26 -9 21 -39 77 -87 121 -101 81 -27 185 13 228 88 25 43 18 48 -23 17 -19 -14 -38 -25 -43 -25 -6 0 -7 23 -3 55 3 30 4 55 2 55 -2 0 -15 -18 -30 -41 -15 -22 -32 -39 -39 -36 -6 2 -17 23 -23 48 l-11 44 -13 -47z"/>
 <path d="M898 543 c-34 -36 -88 -128 -88 -151 0 -15 64 -26 98 -17 27 7 53 8 157 3 29 -2 59 2 65 8 14 14 -42 122 -86 165 l-34 33 6 -32 c5 -25 3 -32 -8 -32 -9 0 -18 13 -22 31 -9 47 -23 26 -42 -61 -12 -54 -22 -80 -31 -80 -9 0 -12 7 -10 18 3 9 8 40 12 67 4 28 11 58 16 68 14 25 7 21 -33 -20z m140 -97 c2 -28 0 -37 -10 -34 -7 3 -14 22 -16 42 -2 28 0 37 10 34 7 -3 14 -22 16 -42z"/>
 </g>
<g id="layer116" fill="#fe4e4f" stroke="none">
 <path d="M0 1000 l0 -1000 1000 0 1000 0 0 1000 0 1000 -1000 0 -1000 0 0 -1000z m1270 415 l0 -115 30 0 c20 0 30 -5 30 -15 0 -34 -136 -11 -168 28 -24 28 -26 80 -4 107 26 32 35 23 19 -19 -15 -40 5 -81 46 -92 l27 -7 0 104 c0 66 -4 104 -11 104 -5 0 -7 5 -4 10 3 6 13 10 21 10 11 0 14 -22 14 -115z m-982 0 c3 -99 14 -134 32 -105 5 8 10 59 10 113 0 133 19 125 22 -10 2 -74 7 -108 16 -111 9 -3 12 22 12 102 0 106 6 124 37 112 12 -5 14 -9 5 -18 -8 -8 -12 -47 -12 -103 0 -75 -3 -95 -17 -107 -22 -18 -98 -21 -111 -5 -6 7 -12 55 -14 107 -2 52 -8 103 -12 114 -7 14 -5 17 10 14 17 -3 19 -14 22 -103z m268 94 c4 -7 10 -7 17 0 13 10 106 9 124 -2 6 -4 14 -3 18 3 9 15 53 12 62 -5 8 -13 12 -13 37 0 36 19 54 19 90 0 26 -14 31 -14 46 0 9 8 26 15 38 15 25 0 62 -33 62 -55 0 -22 -18 -18 -25 5 -4 14 -15 20 -36 20 -31 0 -39 -14 -14 -24 19 -7 36 -51 29 -71 -13 -32 -74 -2 -74 36 0 24 -10 49 -21 49 -5 0 -9 -8 -9 -19 0 -10 -7 -24 -15 -31 -8 -7 -15 -25 -15 -41 0 -45 -35 -30 -37 16 -2 30 -21 75 -32 75 -5 0 -11 -19 -13 -42 -3 -37 -6 -43 -25 -42 -22 1 -27 -7 -24 -33 1 -9 -12 -13 -39 -13 -39 0 -40 -1 -40 -35 0 -19 -4 -35 -10 -35 -5 0 -10 9 -10 20 0 11 -4 20 -9 20 -5 0 -11 -9 -14 -20 -6 -23 -29 -26 -45 -7 -6 7 -12 53 -14 102 -2 57 -7 90 -15 92 -7 3 -13 -10 -15 -33 -4 -54 -28 -57 -28 -4 0 34 -3 41 -17 38 -13 -3 -17 -12 -16 -32 2 -34 19 -56 44 -56 11 0 19 -4 19 -10 0 -19 -41 -10 -65 15 -27 26 -34 82 -14 102 14 14 97 15 105 2z m854 1 c8 -5 19 -5 25 0 5 4 38 8 73 7 l62 -1 0 -32 c0 -40 16 -84 30 -84 6 0 10 26 10 60 0 33 4 60 10 60 6 0 10 -16 10 -35 0 -37 18 -85 32 -85 4 0 8 24 8 54 0 58 8 71 39 61 23 -7 45 -52 30 -61 -6 -3 -13 3 -16 15 -3 12 -12 21 -19 21 -10 0 -14 -14 -14 -50 0 -52 -19 -75 -42 -52 -9 9 -15 8 -26 0 -10 -9 -18 -9 -32 0 -12 7 -21 8 -25 2 -14 -23 -24 -7 -27 42 -4 61 -25 77 -30 22 -4 -53 -28 -57 -28 -5 0 29 -4 41 -14 41 -36 0 -18 -77 20 -86 29 -7 32 -24 4 -24 -29 0 -70 44 -70 74 0 29 -29 49 -50 36 -12 -7 -10 -13 9 -33 43 -47 6 -103 -40 -61 -24 21 -25 80 -2 106 17 19 49 23 73 8z m-292 -87 c2 -9 -9 -13 -37 -13 -30 0 -41 4 -41 16 0 11 9 14 37 12 20 -2 38 -9 41 -15z m45 -266 l37 -16 0 -182 c0 -114 -5 -197 -12 -223 -13 -44 -96 -136 -123 -136 -21 0 -19 -6 19 -53 35 -43 81 -129 88 -161 2 -13 -8 -21 -37 -32 -48 -16 -111 -18 -121 -3 -6 10 -37 9 -112 -7 -32 -6 -105 10 -126 27 -13 12 51 140 91 181 l35 36 -23 12 c-39 20 -99 83 -116 120 -12 26 -17 82 -21 220 -5 210 -7 203 76 227 67 18 294 12 345 -10z"/>
 <path d="M590 1474 c0 -34 24 -94 37 -94 16 0 18 62 3 91 -13 23 -40 25 -40 3z"/>
 <path d="M660 1436 c0 -50 2 -54 26 -60 35 -9 37 -5 19 30 -8 16 -15 41 -15 57 0 17 -5 27 -15 27 -11 0 -15 -13 -15 -54z"/>
 <path d="M727 1483 c-10 -9 -9 -51 1 -57 4 -2 12 11 18 30 8 26 8 34 -1 34 -6 0 -15 -3 -18 -7z"/>
 <path d="M851 1481 c-8 -5 -11 -17 -6 -30 5 -18 9 -20 21 -10 26 21 13 57 -15 40z"/>
 <path d="M762 1430 c0 -14 2 -19 5 -12 2 6 2 18 0 25 -3 6 -5 1 -5 -13z"/>
 <path d="M957 1444 c-7 -8 4 -44 14 -44 12 0 12 37 0 44 -4 3 -11 3 -14 0z"/>
 <path d="M592 1335 c0 -16 2 -22 5 -12 2 9 2 23 0 30 -3 6 -5 -1 -5 -18z"/>
 <path d="M1350 1431 c0 -11 5 -23 10 -26 6 -3 10 3 10 14 0 11 -4 23 -10 26 -5 3 -10 -3 -10 -14z"/>
 <path d="M835 1136 l-50 -11 -3 -165 -2 -165 30 -19 31 -18 -7 61 c-6 52 -4 61 9 61 9 0 31 -21 49 -46 l33 -46 12 29 c7 15 12 37 13 48 0 11 5 27 10 35 9 13 12 13 24 -3 8 -10 17 -38 21 -62 3 -25 9 -45 13 -45 4 0 21 21 37 45 27 41 44 53 56 40 3 -2 2 -31 -1 -63 l-6 -60 33 26 33 25 -2 160 -3 161 -55 12 c-67 16 -208 16 -275 0z m232 -213 c-4 -3 -7 0 -7 7 0 7 3 10 7 7 3 -4 3 -10 0 -14z m-210 -10 c-4 -3 -7 0 -7 7 0 7 3 10 7 7 3 -4 3 -10 0 -14z"/>
 <path d="M968 805 c-4 -11 -9 -32 -12 -47 -6 -24 -36 -41 -36 -20 0 4 -12 21 -26 37 l-25 30 4 -48 c3 -26 1 -50 -4 -53 -5 -3 -25 7 -44 22 -20 15 -38 24 -41 22 -11 -12 64 -95 106 -116 84 -43 201 -10 250 71 29 46 25 53 -14 23 -53 -40 -60 -35 -52 31 l7 58 -32 -43 c-17 -24 -36 -41 -42 -39 -6 2 -16 23 -22 48 -9 33 -13 39 -17 24z"/>
 <path d="M967 573 c-4 -6 -14 -44 -22 -84 -16 -74 -28 -99 -39 -81 -5 9 7 104 20 145 12 41 -62 -41 -91 -100 -32 -67 -25 -79 46 -75 61 3 113 3 184 0 74 -4 82 7 48 70 -31 58 -79 122 -92 122 -5 0 -6 -11 -4 -24 6 -28 -15 -45 -23 -19 -14 46 -21 56 -27 46z m75 -124 c7 -37 -3 -57 -19 -37 -10 12 -17 49 -14 71 3 21 26 -3 33 -34z"/>
 </g>
<g id="layer117" fill="#9ab165" stroke="none">
 <path d="M0 1000 l0 -1000 1000 0 1000 0 0 1000 0 1000 -1000 0 -1000 0 0 -1000z m1270 415 l0 -115 30 0 c20 0 30 -5 30 -15 0 -34 -136 -11 -168 28 -24 28 -26 80 -4 107 26 32 35 23 19 -19 -15 -40 5 -81 46 -92 l27 -7 0 104 c0 66 -4 104 -11 104 -5 0 -7 5 -4 10 3 6 13 10 21 10 11 0 14 -22 14 -115z m-982 0 c3 -99 14 -134 32 -105 5 8 10 59 10 113 0 133 19 125 22 -10 2 -74 7 -108 16 -111 9 -3 12 22 12 102 0 106 6 124 37 112 12 -5 14 -9 5 -18 -8 -8 -12 -47 -12 -103 0 -75 -3 -95 -17 -107 -22 -18 -98 -21 -111 -5 -6 7 -12 55 -14 107 -2 52 -8 103 -12 114 -7 14 -5 17 10 14 17 -3 19 -14 22 -103z m268 94 c4 -7 10 -7 17 0 13 10 106 9 124 -2 6 -4 14 -3 18 3 9 15 53 12 62 -5 8 -13 12 -13 37 0 36 19 54 19 90 0 26 -14 31 -14 46 0 9 8 26 15 38 15 25 0 62 -33 62 -55 0 -22 -18 -18 -25 5 -4 14 -15 20 -36 20 -31 0 -39 -14 -14 -24 19 -7 36 -51 29 -71 -13 -32 -74 -2 -74 36 0 24 -10 49 -21 49 -5 0 -9 -8 -9 -19 0 -10 -7 -24 -15 -31 -8 -7 -15 -25 -15 -41 0 -45 -35 -30 -37 16 -2 30 -21 75 -32 75 -5 0 -11 -19 -13 -42 -3 -37 -6 -43 -25 -42 -22 1 -27 -7 -24 -33 1 -9 -12 -13 -39 -13 -39 0 -40 -1 -40 -35 0 -19 -4 -35 -10 -35 -5 0 -10 9 -10 20 0 11 -4 20 -9 20 -5 0 -11 -9 -14 -20 -6 -23 -29 -26 -45 -7 -6 7 -12 53 -14 102 -2 57 -7 90 -15 92 -7 3 -13 -10 -15 -33 -4 -54 -28 -57 -28 -4 0 34 -3 41 -17 38 -13 -3 -17 -12 -16 -32 2 -34 19 -56 44 -56 11 0 19 -4 19 -10 0 -19 -41 -10 -65 15 -27 26 -34 82 -14 102 14 14 97 15 105 2z m854 1 c8 -5 19 -5 25 0 5 4 38 8 73 7 l62 -1 0 -32 c0 -40 16 -84 30 -84 6 0 10 26 10 60 0 33 4 60 10 60 6 0 10 -16 10 -35 0 -37 18 -85 32 -85 4 0 8 24 8 54 0 58 8 71 39 61 23 -7 45 -52 30 -61 -6 -3 -13 3 -16 15 -3 12 -12 21 -19 21 -10 0 -14 -14 -14 -50 0 -52 -19 -75 -42 -52 -9 9 -15 8 -26 0 -10 -9 -18 -9 -32 0 -12 7 -21 8 -25 2 -14 -23 -24 -7 -27 42 -4 61 -25 77 -30 22 -4 -53 -28 -57 -28 -5 0 29 -4 41 -14 41 -36 0 -18 -77 20 -86 29 -7 32 -24 4 -24 -29 0 -70 44 -70 74 0 29 -29 49 -50 36 -12 -7 -10 -13 9 -33 43 -47 6 -103 -40 -61 -24 21 -25 80 -2 106 17 19 49 23 73 8z m-292 -87 c2 -9 -9 -13 -37 -13 -30 0 -41 4 -41 16 0 11 9 14 37 12 20 -2 38 -9 41 -15z m45 -266 l37 -16 0 -182 c0 -114 -5 -197 -12 -223 -13 -44 -96 -136 -123 -136 -21 0 -19 -6 19 -53 35 -43 81 -129 88 -161 2 -13 -8 -21 -37 -32 -48 -16 -111 -18 -121 -3 -6 10 -37 9 -112 -7 -32 -6 -105 10 -126 27 -13 12 51 140 91 181 l35 36 -23 12 c-39 20 -99 83 -116 120 -12 26 -17 82 -21 220 -5 210 -7 203 76 227 67 18 294 12 345 -10z"/>
 <path d="M590 1474 c0 -34 24 -94 37 -94 16 0 18 62 3 91 -13 23 -40 25 -40 3z"/>
 <path d="M660 1436 c0 -50 2 -54 26 -60 35 -9 37 -5 19 30 -8 16 -15 41 -15 57 0 17 -5 27 -15 27 -11 0 -15 -13 -15 -54z"/>
 <path d="M727 1483 c-10 -9 -9 -51 1 -57 4 -2 12 11 18 30 8 26 8 34 -1 34 -6 0 -15 -3 -18 -7z"/>
 <path d="M851 1481 c-8 -5 -11 -17 -6 -30 5 -18 9 -20 21 -10 26 21 13 57 -15 40z"/>
 <path d="M762 1430 c0 -14 2 -19 5 -12 2 6 2 18 0 25 -3 6 -5 1 -5 -13z"/>
 <path d="M957 1444 c-7 -8 4 -44 14 -44 12 0 12 37 0 44 -4 3 -11 3 -14 0z"/>
 <path d="M592 1335 c0 -16 2 -22 5 -12 2 9 2 23 0 30 -3 6 -5 -1 -5 -18z"/>
 <path d="M1350 1431 c0 -11 5 -23 10 -26 6 -3 10 3 10 14 0 11 -4 23 -10 26 -5 3 -10 -3 -10 -14z"/>
 <path d="M860 1085 c0 -14 5 -25 10 -25 6 0 10 11 10 25 0 14 -4 25 -10 25 -5 0 -10 -11 -10 -25z"/>
 <path d="M1070 1085 c0 -14 5 -25 10 -25 6 0 10 11 10 25 0 14 -4 25 -10 25 -5 0 -10 -11 -10 -25z"/>
 <path d="M966 1033 c-12 -12 -6 -43 9 -43 8 0 15 9 15 19 0 21 -13 34 -24 24z"/>
 <path d="M860 936 c0 -14 5 -26 10 -26 6 0 10 9 10 19 0 11 -4 23 -10 26 -6 4 -10 -5 -10 -19z"/>
 <path d="M1070 935 c0 -14 5 -25 10 -25 6 0 10 11 10 25 0 14 -4 25 -10 25 -5 0 -10 -11 -10 -25z"/>
 <path d="M968 805 c-4 -11 -9 -32 -12 -47 -6 -24 -36 -41 -36 -20 0 4 -12 21 -26 37 l-25 30 4 -48 c3 -26 1 -50 -4 -53 -5 -3 -25 7 -44 22 -20 15 -38 24 -41 22 -11 -12 64 -95 106 -116 84 -43 201 -10 250 71 29 46 25 53 -14 23 -53 -40 -60 -35 -52 31 l7 58 -32 -43 c-17 -24 -36 -41 -42 -39 -6 2 -16 23 -22 48 -9 33 -13 39 -17 24z"/>
 <path d="M967 573 c-4 -6 -14 -44 -22 -84 -16 -74 -28 -99 -39 -81 -5 9 7 104 20 145 12 41 -62 -41 -91 -100 -32 -67 -25 -79 46 -75 61 3 113 3 184 0 74 -4 82 7 48 70 -31 58 -79 122 -92 122 -5 0 -6 -11 -4 -24 6 -28 -15 -45 -23 -19 -14 46 -21 56 -27 46z m75 -124 c7 -37 -3 -57 -19 -37 -10 12 -17 49 -14 71 3 21 26 -3 33 -34z"/>
 </g>
<g id="layer118" fill="#b7db7b" stroke="none">
 <path d="M0 1000 l0 -1000 1000 0 1000 0 0 1000 0 1000 -1000 0 -1000 0 0 -1000z m1270 415 l0 -115 30 0 c20 0 30 -5 30 -15 0 -34 -136 -11 -168 28 -24 28 -26 80 -4 107 26 32 35 23 19 -19 -15 -40 5 -81 46 -92 l27 -7 0 104 c0 66 -4 104 -11 104 -5 0 -7 5 -4 10 3 6 13 10 21 10 11 0 14 -22 14 -115z m-982 0 c3 -99 14 -134 32 -105 5 8 10 59 10 113 0 133 19 125 22 -10 2 -74 7 -108 16 -111 9 -3 12 22 12 102 0 106 6 124 37 112 12 -5 14 -9 5 -18 -8 -8 -12 -47 -12 -103 0 -75 -3 -95 -17 -107 -22 -18 -98 -21 -111 -5 -6 7 -12 55 -14 107 -2 52 -8 103 -12 114 -7 14 -5 17 10 14 17 -3 19 -14 22 -103z m268 94 c4 -7 10 -7 17 0 13 10 106 9 124 -2 6 -4 14 -3 18 3 9 15 53 12 62 -5 8 -13 12 -13 37 0 36 19 54 19 90 0 26 -14 31 -14 46 0 9 8 26 15 38 15 25 0 62 -33 62 -55 0 -22 -18 -18 -25 5 -4 14 -15 20 -36 20 -31 0 -39 -14 -14 -24 19 -7 36 -51 29 -71 -13 -32 -74 -2 -74 36 0 24 -10 49 -21 49 -5 0 -9 -8 -9 -19 0 -10 -7 -24 -15 -31 -8 -7 -15 -25 -15 -41 0 -45 -35 -30 -37 16 -2 30 -21 75 -32 75 -5 0 -11 -19 -13 -42 -3 -37 -6 -43 -25 -42 -22 1 -27 -7 -24 -33 1 -9 -12 -13 -39 -13 -39 0 -40 -1 -40 -35 0 -19 -4 -35 -10 -35 -5 0 -10 9 -10 20 0 11 -4 20 -9 20 -5 0 -11 -9 -14 -20 -6 -23 -29 -26 -45 -7 -6 7 -12 53 -14 102 -2 57 -7 90 -15 92 -7 3 -13 -10 -15 -33 -4 -54 -28 -57 -28 -4 0 34 -3 41 -17 38 -13 -3 -17 -12 -16 -32 2 -34 19 -56 44 -56 11 0 19 -4 19 -10 0 -19 -41 -10 -65 15 -27 26 -34 82 -14 102 14 14 97 15 105 2z m854 1 c8 -5 19 -5 25 0 5 4 38 8 73 7 l62 -1 0 -32 c0 -40 16 -84 30 -84 6 0 10 26 10 60 0 33 4 60 10 60 6 0 10 -16 10 -35 0 -37 18 -85 32 -85 4 0 8 24 8 54 0 58 8 71 39 61 23 -7 45 -52 30 -61 -6 -3 -13 3 -16 15 -3 12 -12 21 -19 21 -10 0 -14 -14 -14 -50 0 -52 -19 -75 -42 -52 -9 9 -15 8 -26 0 -10 -9 -18 -9 -32 0 -12 7 -21 8 -25 2 -14 -23 -24 -7 -27 42 -4 61 -25 77 -30 22 -4 -53 -28 -57 -28 -5 0 29 -4 41 -14 41 -36 0 -18 -77 20 -86 29 -7 32 -24 4 -24 -29 0 -70 44 -70 74 0 29 -29 49 -50 36 -12 -7 -10 -13 9 -33 43 -47 6 -103 -40 -61 -24 21 -25 80 -2 106 17 19 49 23 73 8z m-292 -87 c2 -9 -9 -13 -37 -13 -30 0 -41 4 -41 16 0 11 9 14 37 12 20 -2 38 -9 41 -15z m45 -266 l37 -16 0 -182 c0 -114 -5 -197 -12 -223 -13 -44 -96 -136 -123 -136 -21 0 -19 -6 19 -53 35 -43 81 -129 88 -161 2 -13 -8 -21 -37 -32 -48 -16 -111 -18 -121 -3 -6 10 -37 9 -112 -7 -32 -6 -105 10 -126 27 -13 12 51 140 91 181 l35 36 -23 12 c-39 20 -99 83 -116 120 -12 26 -17 82 -21 220 -5 210 -7 203 76 227 67 18 294 12 345 -10z"/>
 <path d="M590 1474 c0 -34 24 -94 37 -94 16 0 18 62 3 91 -13 23 -40 25 -40 3z"/>
 <path d="M660 1436 c0 -50 2 -54 26 -60 35 -9 37 -5 19 30 -8 16 -15 41 -15 57 0 17 -5 27 -15 27 -11 0 -15 -13 -15 -54z"/>
 <path d="M727 1483 c-10 -9 -9 -51 1 -57 4 -2 12 11 18 30 8 26 8 34 -1 34 -6 0 -15 -3 -18 -7z"/>
 <path d="M851 1481 c-8 -5 -11 -17 -6 -30 5 -18 9 -20 21 -10 26 21 13 57 -15 40z"/>
 <path d="M762 1430 c0 -14 2 -19 5 -12 2 6 2 18 0 25 -3 6 -5 1 -5 -13z"/>
 <path d="M957 1444 c-7 -8 4 -44 14 -44 12 0 12 37 0 44 -4 3 -11 3 -14 0z"/>
 <path d="M592 1335 c0 -16 2 -22 5 -12 2 9 2 23 0 30 -3 6 -5 -1 -5 -18z"/>
 <path d="M1350 1431 c0 -11 5 -23 10 -26 6 -3 10 3 10 14 0 11 -4 23 -10 26 -5 3 -10 -3 -10 -14z"/>
 <path d="M860 1085 c0 -14 5 -25 10 -25 6 0 10 11 10 25 0 14 -4 25 -10 25 -5 0 -10 -11 -10 -25z"/>
 <path d="M1070 1085 c0 -14 5 -25 10 -25 6 0 10 11 10 25 0 14 -4 25 -10 25 -5 0 -10 -11 -10 -25z"/>
 <path d="M966 1033 c-12 -12 -6 -43 9 -43 8 0 15 9 15 19 0 21 -13 34 -24 24z"/>
 <path d="M860 936 c0 -14 5 -26 10 -26 6 0 10 9 10 19 0 11 -4 23 -10 26 -6 4 -10 -5 -10 -19z"/>
 <path d="M1070 935 c0 -14 5 -25 10 -25 6 0 10 11 10 25 0 14 -4 25 -10 25 -5 0 -10 -11 -10 -25z"/>
 <path d="M966 785 c-4 -16 -9 -36 -12 -42 -7 -24 -31 -13 -58 25 l-28 37 6 -47 c7 -58 -6 -68 -46 -38 -38 28 -44 22 -16 -21 34 -50 121 -92 177 -85 66 9 122 44 150 96 l25 45 -36 -27 c-53 -40 -61 -37 -56 23 l3 50 -22 -28 c-13 -15 -23 -31 -23 -35 0 -5 -8 -8 -19 -8 -13 0 -21 11 -28 43 l-10 42 -7 -30z"/>
 <path d="M967 573 c-3 -5 -11 -37 -17 -73 -15 -77 -28 -106 -41 -93 -10 10 1 106 17 148 15 41 -47 -28 -83 -93 -42 -76 -37 -88 38 -84 64 4 128 4 184 0 79 -5 82 20 14 122 -43 63 -60 75 -56 38 3 -36 -26 -28 -35 10 -9 33 -13 38 -21 25z m78 -119 c7 -38 -7 -67 -24 -48 -11 12 -22 70 -14 78 16 15 31 3 38 -30z"/>
 </g>
<g id="layer119" fill="#ffeabd" stroke="none">
 <path d="M0 1000 l0 -1000 1000 0 1000 0 0 1000 0 1000 -1000 0 -1000 0 0 -1000z m1270 415 l0 -115 30 0 c20 0 30 -5 30 -15 0 -34 -136 -11 -168 28 -24 28 -26 80 -4 107 26 32 35 23 19 -19 -15 -40 5 -81 46 -92 l27 -7 0 104 c0 66 -4 104 -11 104 -5 0 -7 5 -4 10 3 6 13 10 21 10 11 0 14 -22 14 -115z m-982 0 c3 -99 14 -134 32 -105 5 8 10 59 10 113 0 133 19 125 22 -10 2 -74 7 -108 16 -111 9 -3 12 22 12 102 0 106 6 124 37 112 12 -5 14 -9 5 -18 -8 -8 -12 -47 -12 -103 0 -75 -3 -95 -17 -107 -22 -18 -98 -21 -111 -5 -6 7 -12 55 -14 107 -2 52 -8 103 -12 114 -7 14 -5 17 10 14 17 -3 19 -14 22 -103z m268 94 c4 -7 10 -7 17 0 13 10 106 9 124 -2 6 -4 14 -3 18 3 9 15 53 12 62 -5 8 -13 12 -13 37 0 36 19 54 19 90 0 26 -14 31 -14 46 0 9 8 26 15 38 15 25 0 62 -33 62 -55 0 -22 -18 -18 -25 5 -4 14 -15 20 -36 20 -31 0 -39 -14 -14 -24 19 -7 36 -51 29 -71 -13 -32 -74 -2 -74 36 0 24 -10 49 -21 49 -5 0 -9 -8 -9 -19 0 -10 -7 -24 -15 -31 -8 -7 -15 -25 -15 -41 0 -45 -35 -30 -37 16 -2 30 -21 75 -32 75 -5 0 -11 -19 -13 -42 -3 -37 -6 -43 -25 -42 -22 1 -27 -7 -24 -33 1 -9 -12 -13 -39 -13 -39 0 -40 -1 -40 -35 0 -19 -4 -35 -10 -35 -5 0 -10 9 -10 20 0 11 -4 20 -9 20 -5 0 -11 -9 -14 -20 -6 -23 -29 -26 -45 -7 -6 7 -12 53 -14 102 -2 57 -7 90 -15 92 -7 3 -13 -10 -15 -33 -4 -54 -28 -57 -28 -4 0 34 -3 41 -17 38 -13 -3 -17 -12 -16 -32 2 -34 19 -56 44 -56 11 0 19 -4 19 -10 0 -19 -41 -10 -65 15 -27 26 -34 82 -14 102 14 14 97 15 105 2z m854 1 c8 -5 19 -5 25 0 5 4 38 8 73 7 l62 -1 0 -32 c0 -40 16 -84 30 -84 6 0 10 26 10 60 0 33 4 60 10 60 6 0 10 -16 10 -35 0 -37 18 -85 32 -85 4 0 8 24 8 54 0 58 8 71 39 61 23 -7 45 -52 30 -61 -6 -3 -13 3 -16 15 -3 12 -12 21 -19 21 -10 0 -14 -14 -14 -50 0 -52 -19 -75 -42 -52 -9 9 -15 8 -26 0 -10 -9 -18 -9 -32 0 -12 7 -21 8 -25 2 -14 -23 -24 -7 -27 42 -4 61 -25 77 -30 22 -4 -53 -28 -57 -28 -5 0 29 -4 41 -14 41 -36 0 -18 -77 20 -86 29 -7 32 -24 4 -24 -29 0 -70 44 -70 74 0 29 -29 49 -50 36 -12 -7 -10 -13 9 -33 43 -47 6 -103 -40 -61 -24 21 -25 80 -2 106 17 19 49 23 73 8z m-292 -87 c2 -9 -9 -13 -37 -13 -30 0 -41 4 -41 16 0 11 9 14 37 12 20 -2 38 -9 41 -15z m45 -266 l37 -16 0 -182 c0 -114 -5 -197 -12 -223 -13 -44 -96 -136 -123 -136 -21 0 -19 -6 19 -53 35 -43 81 -129 88 -161 2 -13 -8 -21 -37 -32 -48 -16 -111 -18 -121 -3 -6 10 -37 9 -112 -7 -32 -6 -105 10 -126 27 -13 12 51 140 91 181 l35 36 -23 12 c-39 20 -99 83 -116 120 -12 26 -17 82 -21 220 -5 210 -7 203 76 227 67 18 294 12 345 -10z"/>
 <path d="M590 1474 c0 -34 24 -94 37 -94 16 0 18 62 3 91 -13 23 -40 25 -40 3z"/>
 <path d="M660 1436 c0 -50 2 -54 26 -60 35 -9 37 -5 19 30 -8 16 -15 41 -15 57 0 17 -5 27 -15 27 -11 0 -15 -13 -15 -54z"/>
 <path d="M727 1483 c-10 -9 -9 -51 1 -57 4 -2 12 11 18 30 8 26 8 34 -1 34 -6 0 -15 -3 -18 -7z"/>
 <path d="M851 1481 c-8 -5 -11 -17 -6 -30 5 -18 9 -20 21 -10 26 21 13 57 -15 40z"/>
 <path d="M762 1430 c0 -14 2 -19 5 -12 2 6 2 18 0 25 -3 6 -5 1 -5 -13z"/>
 <path d="M957 1444 c-7 -8 4 -44 14 -44 12 0 12 37 0 44 -4 3 -11 3 -14 0z"/>
 <path d="M592 1335 c0 -16 2 -22 5 -12 2 9 2 23 0 30 -3 6 -5 -1 -5 -18z"/>
 <path d="M1350 1431 c0 -11 5 -23 10 -26 6 -3 10 3 10 14 0 11 -4 23 -10 26 -5 3 -10 -3 -10 -14z"/>
 <path d="M860 1085 c0 -14 5 -25 10 -25 6 0 10 11 10 25 0 14 -4 25 -10 25 -5 0 -10 -11 -10 -25z"/>
 <path d="M1070 1085 c0 -14 5 -25 10 -25 6 0 10 11 10 25 0 14 -4 25 -10 25 -5 0 -10 -11 -10 -25z"/>
 <path d="M966 1033 c-12 -12 -6 -43 9 -43 8 0 15 9 15 19 0 21 -13 34 -24 24z"/>
 <path d="M860 936 c0 -14 5 -26 10 -26 6 0 10 9 10 19 0 11 -4 23 -10 26 -6 4 -10 -5 -10 -19z"/>
 <path d="M1070 935 c0 -14 5 -25 10 -25 6 0 10 11 10 25 0 14 -4 25 -10 25 -5 0 -10 -11 -10 -25z"/>
 </g>
<g id="layer120" fill="#ffffff" stroke="none">
 <path d="M0 1000 l0 -1000 1000 0 1000 0 0 1000 0 1000 -1000 0 -1000 0 0 -1000z m1270 415 l0 -115 30 0 c20 0 30 -5 30 -15 0 -34 -136 -11 -168 28 -24 28 -26 80 -4 107 26 32 35 23 19 -19 -15 -40 5 -81 46 -92 l27 -7 0 104 c0 66 -4 104 -11 104 -5 0 -7 5 -4 10 3 6 13 10 21 10 11 0 14 -22 14 -115z m-982 0 c3 -99 14 -134 32 -105 5 8 10 59 10 113 0 133 19 125 22 -10 2 -74 7 -108 16 -111 9 -3 12 22 12 102 0 106 6 124 37 112 12 -5 14 -9 5 -18 -8 -8 -12 -47 -12 -103 0 -75 -3 -95 -17 -107 -22 -18 -98 -21 -111 -5 -6 7 -12 55 -14 107 -2 52 -8 103 -12 114 -7 14 -5 17 10 14 17 -3 19 -14 22 -103z m268 94 c4 -7 10 -7 17 0 13 10 106 9 124 -2 6 -4 14 -3 18 3 9 15 53 12 62 -5 8 -13 12 -13 37 0 36 19 54 19 90 0 26 -14 31 -14 46 0 9 8 26 15 38 15 25 0 62 -33 62 -55 0 -22 -18 -18 -25 5 -4 14 -15 20 -36 20 -31 0 -39 -14 -14 -24 19 -7 36 -51 29 -71 -13 -32 -74 -2 -74 36 0 24 -10 49 -21 49 -5 0 -9 -8 -9 -19 0 -10 -7 -24 -15 -31 -8 -7 -15 -25 -15 -41 0 -45 -35 -30 -37 16 -2 30 -21 75 -32 75 -5 0 -11 -19 -13 -42 -3 -37 -6 -43 -25 -42 -22 1 -27 -7 -24 -33 1 -9 -12 -13 -39 -13 -39 0 -40 -1 -40 -35 0 -19 -4 -35 -10 -35 -5 0 -10 9 -10 20 0 11 -4 20 -9 20 -5 0 -11 -9 -14 -20 -6 -23 -29 -26 -45 -7 -6 7 -12 53 -14 102 -2 57 -7 90 -15 92 -7 3 -13 -10 -15 -33 -4 -54 -28 -57 -28 -4 0 34 -3 41 -17 38 -13 -3 -17 -12 -16 -32 2 -34 19 -56 44 -56 11 0 19 -4 19 -10 0 -19 -41 -10 -65 15 -27 26 -34 82 -14 102 14 14 97 15 105 2z m854 1 c8 -5 19 -5 25 0 5 4 38 8 73 7 l62 -1 0 -32 c0 -40 16 -84 30 -84 6 0 10 26 10 60 0 33 4 60 10 60 6 0 10 -16 10 -35 0 -37 18 -85 32 -85 4 0 8 24 8 54 0 58 8 71 39 61 23 -7 45 -52 30 -61 -6 -3 -13 3 -16 15 -3 12 -12 21 -19 21 -10 0 -14 -14 -14 -50 0 -52 -19 -75 -42 -52 -9 9 -15 8 -26 0 -10 -9 -18 -9 -32 0 -12 7 -21 8 -25 2 -14 -23 -24 -7 -27 42 -4 61 -25 77 -30 22 -4 -53 -28 -57 -28 -5 0 29 -4 41 -14 41 -36 0 -18 -77 20 -86 29 -7 32 -24 4 -24 -29 0 -70 44 -70 74 0 29 -29 49 -50 36 -12 -7 -10 -13 9 -33 43 -47 6 -103 -40 -61 -24 21 -25 80 -2 106 17 19 49 23 73 8z m-292 -87 c2 -9 -9 -13 -37 -13 -30 0 -41 4 -41 16 0 11 9 14 37 12 20 -2 38 -9 41 -15z m45 -266 l37 -16 0 -182 c0 -114 -5 -197 -12 -223 -13 -44 -96 -136 -123 -136 -21 0 -19 -6 19 -53 35 -43 81 -129 88 -161 2 -13 -8 -21 -37 -32 -48 -16 -111 -18 -121 -3 -6 10 -37 9 -112 -7 -32 -6 -105 10 -126 27 -13 12 51 140 91 181 l35 36 -23 12 c-39 20 -99 83 -116 120 -12 26 -17 82 -21 220 -5 210 -7 203 76 227 67 18 294 12 345 -10z"/>
 <path d="M590 1474 c0 -34 24 -94 37 -94 16 0 18 62 3 91 -13 23 -40 25 -40 3z"/>
 <path d="M660 1436 c0 -50 2 -54 26 -60 35 -9 37 -5 19 30 -8 16 -15 41 -15 57 0 17 -5 27 -15 27 -11 0 -15 -13 -15 -54z"/>
 <path d="M727 1483 c-10 -9 -9 -51 1 -57 4 -2 12 11 18 30 8 26 8 34 -1 34 -6 0 -15 -3 -18 -7z"/>
 <path d="M851 1481 c-8 -5 -11 -17 -6 -30 5 -18 9 -20 21 -10 26 21 13 57 -15 40z"/>
 <path d="M762 1430 c0 -14 2 -19 5 -12 2 6 2 18 0 25 -3 6 -5 1 -5 -13z"/>
 <path d="M957 1444 c-7 -8 4 -44 14 -44 12 0 12 37 0 44 -4 3 -11 3 -14 0z"/>
 <path d="M592 1335 c0 -16 2 -22 5 -12 2 9 2 23 0 30 -3 6 -5 -1 -5 -18z"/>
 <path d="M1350 1431 c0 -11 5 -23 10 -26 6 -3 10 3 10 14 0 11 -4 23 -10 26 -5 3 -10 -3 -10 -14z"/>
 </g>

</svg>